<?xml version="1.0" encoding="utf-8"?>
<!-- Generator: Adobe Illustrator 27.8.0, SVG Export Plug-In . SVG Version: 6.00 Build 0)  -->
<svg version="1.1" id="Layer_1" xmlns="http://www.w3.org/2000/svg" xmlns:xlink="http://www.w3.org/1999/xlink" x="0px" y="0px"
	 viewBox="0 0 24 24" style="enable-background:new 0 0 24 24;" xml:space="preserve">
<style type="text/css">
	.st0{fill:none;stroke:#000000;stroke-width:2;stroke-linecap:round;stroke-linejoin:round;}
</style>
<g>
	<path class="st0" d="M3,6h2h16"/>
	<path class="st0" d="M19,6v14c0,0.5-0.2,1-0.6,1.4C18,21.8,17.5,22,17,22H7c-0.5,0-1-0.2-1.4-0.6C5.2,21,5,20.5,5,20V6 M8,6V4
		c0-0.5,0.2-1,0.6-1.4C9,2.2,9.5,2,10,2h4c0.5,0,1,0.2,1.4,0.6C15.8,3,16,3.5,16,4v2"/>
	<path class="st0" d="M10,11v6"/>
	<path class="st0" d="M14,11v6"/>
</g>
</svg>
