<?xml version="1.0" encoding="utf-8"?>
<!-- Generator: Adobe Illustrator 27.8.0, SVG Export Plug-In . SVG Version: 6.00 Build 0)  -->
<svg version="1.1" id="Layer_1" xmlns="http://www.w3.org/2000/svg" xmlns:xlink="http://www.w3.org/1999/xlink" x="0px" y="0px"
	 viewBox="0 0 24 24" style="enable-background:new 0 0 24 24;" xml:space="preserve">
<style type="text/css">
	.st0{fill:none;stroke:#000000;stroke-width:2;stroke-linecap:round;stroke-linejoin:round;}
</style>
<g>
	<path class="st0" d="M4,3h16c0.5,0,1,0.2,1.4,0.6C21.8,4,22,4.5,22,5v6c0,2.7-1.1,5.2-2.9,7.1C17.2,19.9,14.7,21,12,21
		c-1.3,0-2.6-0.3-3.8-0.8C7,19.7,5.9,19,4.9,18.1C3.1,16.2,2,13.7,2,11V5c0-0.5,0.2-1,0.6-1.4C3,3.2,3.5,3,4,3z"/>
	<path class="st0" d="M8,10l4,4l4-4"/>
</g>
</svg>
