<?xml version="1.0" encoding="utf-8"?>
<!-- Generator: Adobe Illustrator 27.8.0, SVG Export Plug-In . SVG Version: 6.00 Build 0)  -->
<svg version="1.1" id="Layer_1" xmlns="http://www.w3.org/2000/svg" xmlns:xlink="http://www.w3.org/1999/xlink" x="0px" y="0px"
	 viewBox="0 0 24 24" enable-background="new 0 0 24 24" xml:space="preserve">
<g>
	<circle fill="#EFC84B" cx="12" cy="12" r="10"/>
	<g>
		<path fill="#FFFFFF" d="M11.5,14.2c-0.5,0-0.9-0.4-1-0.9L10.3,12c-0.1-0.6,0.3-1.1,0.9-1.1c1.6-0.2,2.4-0.7,2.4-1.6v0
			c0-0.8-0.6-1.3-1.7-1.3c-0.8,0-1.5,0.2-2.2,0.8C9.5,8.8,9.2,9,8.8,9C8.1,9,7.5,8.4,7.5,7.7c0-0.4,0.2-0.7,0.5-1
			c1-0.8,2.3-1.4,3.9-1.4c2.7,0,4.5,1.4,4.5,3.9v0c0,2.4-1.7,3.4-3.7,3.8l-0.1,0.3c-0.1,0.5-0.5,0.9-1,0.9H11.5z M11.5,15.5
			c0.9,0,1.6,0.7,1.6,1.6v0c0,0.9-0.7,1.6-1.6,1.6c-0.9,0-1.6-0.7-1.6-1.6v0C9.9,16.2,10.6,15.5,11.5,15.5z"/>
	</g>
</g>
</svg>
