<?xml version="1.0" encoding="utf-8"?>
<!-- Generator: Adobe Illustrator 27.8.0, SVG Export Plug-In . SVG Version: 6.00 Build 0)  -->
<svg version="1.1" id="Layer_1" xmlns="http://www.w3.org/2000/svg" xmlns:xlink="http://www.w3.org/1999/xlink" x="0px" y="0px"
	 viewBox="0 0 24 24" style="enable-background:new 0 0 24 24;" xml:space="preserve">
<style type="text/css">
	.st0{clip-path:url(#SVGID_00000092452720473134830590000010136670147620306831_);}
	.st1{fill:none;stroke:#000000;stroke-width:2;stroke-linecap:round;stroke-linejoin:round;}
</style>
<g>
	<g>
		<defs>
			<rect id="SVGID_1_" width="24" height="24"/>
		</defs>
		<clipPath id="SVGID_00000045582849819277603470000014383297925809517195_">
			<use xlink:href="#SVGID_1_"  style="overflow:visible;"/>
		</clipPath>
		<g style="clip-path:url(#SVGID_00000045582849819277603470000014383297925809517195_);">
			<path class="st1" d="M1,4v6h6"/>
			<path class="st1" d="M23,20v-6h-6"/>
			<path class="st1" d="M20.5,9C20,7.6,19.1,6.3,18,5.3c-1.1-1-2.5-1.7-4-2.1c-1.5-0.3-3-0.3-4.5,0.1C8,3.8,6.7,4.6,5.6,5.6L1,10
				 M23,14l-4.6,4.4c-1.1,1.1-2.4,1.9-3.9,2.3c-1.5,0.4-3,0.5-4.5,0.1c-1.5-0.3-2.9-1-4-2.1c-1.1-1-2-2.3-2.5-3.7"/>
		</g>
	</g>
</g>
</svg>
