<?xml version="1.0" encoding="utf-8"?>
<!-- Generator: Adobe Illustrator 27.8.0, SVG Export Plug-In . SVG Version: 6.00 Build 0)  -->
<svg version="1.1" id="Layer_1" xmlns="http://www.w3.org/2000/svg" xmlns:xlink="http://www.w3.org/1999/xlink" x="0px" y="0px"
	 viewBox="0 0 24 24" style="enable-background:new 0 0 24 24;" xml:space="preserve">
<style type="text/css">
	.st0{fill:none;stroke:#000000;stroke-width:2;stroke-linecap:round;stroke-linejoin:round;}
</style>
<g>
	<path class="st0" d="M21,16V8c0-0.4-0.1-0.7-0.3-1c-0.2-0.3-0.4-0.6-0.7-0.7l-7-4C12.7,2.1,12.4,2,12,2s-0.7,0.1-1,0.3l-7,4
		C3.7,6.4,3.4,6.7,3.3,7C3.1,7.3,3,7.6,3,8v8c0,0.4,0.1,0.7,0.3,1c0.2,0.3,0.4,0.6,0.7,0.7l7,4c0.3,0.2,0.6,0.3,1,0.3s0.7-0.1,1-0.3
		l7-4c0.3-0.2,0.6-0.4,0.7-0.7C20.9,16.7,21,16.3,21,16z"/>
	<path class="st0" d="M3.3,6.9L12,12l8.7-5.1"/>
	<path class="st0" d="M12,22V12"/>
</g>
</svg>
