<?xml version="1.0" encoding="utf-8"?>
<!-- Generator: Adobe Illustrator 27.8.0, SVG Export Plug-In . SVG Version: 6.00 Build 0)  -->
<svg version="1.1" id="Layer_1" xmlns="http://www.w3.org/2000/svg" xmlns:xlink="http://www.w3.org/1999/xlink" x="0px" y="0px"
	 viewBox="0 0 300 300" style="enable-background:new 0 0 300 300;" xml:space="preserve">
<style type="text/css">
	.st0{fill:#FF78A9;stroke:#FFFFFF;stroke-width:8.4793;stroke-miterlimit:10;}
	.st1{fill:#FCFCFC;}
	.st2{fill:#FCEDF3;stroke:#0F1F27;stroke-width:6.2985;stroke-miterlimit:10;}
	.st3{fill:#0F1F27;}
	.st4{fill:#FF78A9;}
	.st5{fill:#0F1E29;}
	.st6{fill:#FFFFFF;}
</style>
<g>
	<path class="st0" d="M235.3,122.2c-7.3-0.4-15-1.6-22.3-5.2c-6.9-3.5-13.2-7.9-17.6-14.1c-12.3-17-15.7-35.5-7-55.3
		c7.5-16.9,20.5-27.5,38.6-30.7c20.8-3.7,37.6,3.7,50.5,20.3c7,9,10.4,19.4,10.8,30.8c0.3,9.4-2,18.2-6.4,26.5
		c-2.5,4.8-5.6,9.2-9.4,13c-3.9,3.8-8.4,6.9-13.3,9.4C251.9,120.6,244.1,121.9,235.3,122.2z"/>
	<g>
		<path class="st1" d="M209.8,99.2c-1.9,0-3.4-1.5-2.8-3.8c1.5-5,2.5-10.2,3.9-15.2c0.2-0.8,0.8-1.4,1.3-2c3.1-3.3,6.2-6.6,9.3-9.9
			c5.1-5.4,10.3-10.8,15.5-16.1c1.9-2,2.9-1.9,4.7,0.1c3.4,3.7,6.9,7.3,10.4,11c2.5,2.6,2.6,2.9,0,5.6c-3.9,4.2-7.9,8.3-11.8,12.5
			c-3.3,3.4-6.6,6.8-9.7,10.4c-1.9,2.2-4.1,3.6-7.1,4.2C219.1,96.9,214.7,98.5,209.8,99.2z"/>
		<path class="st1" d="M265.1,52.9c0.2,1.4-0.3,2.5-1.4,3.5c-1.7,1.6-3.3,3.2-4.9,4.9c-1.2,1.3-2.3,1.4-3.5,0
			c-1.7-2-3.8-3.6-5.3-5.8c-1.6-2.3-4.1-3.8-6.1-5.8s-2-2.5-0.1-4.5c1.5-1.5,3-3,4.5-4.5c2.6-2.5,5.3-2.2,7.4,0.6
			c2.2,2.9,5,5.2,7.5,7.8C264.3,50.3,265.4,51.2,265.1,52.9z"/>
	</g>
</g>
<g>
	<path class="st2" d="M277.6,291.5h-100c-5.9,0-10.8-4.9-10.8-10.8V155.2c0-5.9,4.9-10.8,10.8-10.8h100c5.9,0,10.8,4.9,10.8,10.8
		v125.5C288.4,286.7,283.5,291.5,277.6,291.5z"/>
	<g>
		<path class="st3" d="M231.6,215.3c1.9-4.8,4.9-8.1,10.2-8c5.3,0,8.6,3.1,10.5,8c2.5,0,5,0,7.6,0c0.6,0,1.2,0,1.8,0
			c1.9,0.1,3.1,1,3,2.6c0,1.5-1.2,2.4-3.2,2.5c-2.3,0-4.7,0-7,0c-0.7,0-1.5-0.1-2.3,0.2c-1.9,4.8-5,8.1-10.5,8
			c-5.3-0.1-8.6-3.1-10.1-8c-0.6-0.4-1.1-0.3-1.7-0.3c-13.5,0-26.9,0-40.4,0c-0.5,0-0.9,0-1.4,0c-1.3-0.2-2.1-1-2.2-2.2
			c-0.1-1.4,0.6-2.3,1.9-2.7c0.6-0.2,1.3-0.1,2-0.1c12.9,0,25.9,0,38.8,0C229.8,215.3,230.6,215.3,231.6,215.3z M248.2,217.8
			c-0.1-3.7-2.8-6.5-6.4-6.5c-3.5,0-6.4,3-6.3,6.5c0.1,3.5,3,6.6,6.4,6.5C245.4,224.4,248.3,221.3,248.2,217.8z"/>
		<path class="st4" d="M248.2,217.8c0,3.5-2.8,6.5-6.3,6.6c-3.4,0-6.3-3-6.4-6.5c-0.1-3.5,2.8-6.5,6.3-6.5
			C245.4,211.4,248.2,214.2,248.2,217.8z"/>
	</g>
	<g>
		<path class="st3" d="M197.1,179.8c-2.8,0-5.5,0-8.2,0c-1.3,0-2.2-0.5-2.7-1.7c-0.4-0.9-0.1-1.8,0.5-2.5c0.6-0.8,1.5-0.8,2.5-0.8
			c2.6,0,5.2,0,7.9,0c1.8-4.9,5.1-8,10.4-8c5.3,0,8.4,3.2,10.2,8c1,0,1.8,0,2.7,0c13.4,0,26.8,0,40.2,0c2.8,0,4,0.7,4,2.5
			c0,1.7-1.2,2.5-4,2.5c-13.5,0-27.1,0-40.6,0c-0.7,0-1.5,0-2.3,0c-1.8,4.8-4.9,8.2-10.2,8.2S198.9,184.8,197.1,179.8z M213.7,177.4
			c0-3.7-2.5-6.3-6.1-6.4c-3.6-0.1-6.5,2.7-6.5,6.3c0,3.5,2.7,6.3,6.2,6.4C210.9,183.8,213.6,181.1,213.7,177.4z"/>
		<path class="st4" d="M213.7,177.4c0,3.7-2.8,6.5-6.4,6.4c-3.5-0.1-6.2-2.9-6.2-6.4c0-3.6,2.8-6.4,6.5-6.3
			C211.2,171,213.7,173.7,213.7,177.4z"/>
	</g>
	<g>
		<path class="st3" d="M197.1,261c-2.8,0-5.5,0-8.2,0c-1.3,0-2.2-0.5-2.7-1.7c-0.4-0.9-0.1-1.8,0.5-2.5c0.6-0.8,1.5-0.8,2.5-0.8
			c2.6,0,5.2,0,7.9,0c1.8-4.9,5.1-8,10.4-8c5.3,0,8.4,3.2,10.2,8c1,0,1.8,0,2.7,0c13.4,0,26.8,0,40.2,0c2.8,0,4,0.7,4,2.5
			c0,1.7-1.2,2.5-4,2.5c-13.5,0-27.1,0-40.6,0c-0.7,0-1.5,0-2.3,0c-1.8,4.8-4.9,8.2-10.2,8.2S198.9,266,197.1,261z M213.7,258.6
			c0-3.7-2.5-6.3-6.1-6.4c-3.6-0.1-6.5,2.7-6.5,6.3c0,3.5,2.7,6.3,6.2,6.4C210.9,265,213.6,262.3,213.7,258.6z"/>
		<path class="st4" d="M213.7,258.6c0,3.7-2.8,6.5-6.4,6.4c-3.5-0.1-6.2-2.9-6.2-6.4c0-3.6,2.8-6.4,6.5-6.3
			C211.2,252.2,213.7,254.9,213.7,258.6z"/>
	</g>
</g>
<g>
	<path class="st5" d="M113.4,39.7c0,12.9,0,25.8,0,38.7c0,5.8,2.4,10.2,7,13.6c3.7,2.7,7.1,5.7,10,9.2c5.6,6.5,8.9,14.1,10,22.6
		c0.5,3.6,0.4,7.2,0.4,10.9c0,46.2,0,92.4,0,138.7c0,1.2,0,2.5-0.2,3.7c-0.6,5-2.8,9.3-6.7,12.6c-3.8,3.3-8.3,4.9-13.4,4.9
		c-17.9,0-35.9,0-53.8,0c-6.9,0-12.3-3-16.2-8.6c-2.5-3.5-3.5-7.5-3.5-11.8c0-36,0-72.1,0-108.1c0-12.8,0-25.6,0-38.4
		c0-7.4,2-14.2,5.7-20.6c3.2-5.5,7.5-10,12.6-13.9c1.9-1.4,3.8-2.9,5.2-4.9c2.2-3.1,3-6.5,3-10.2c0-13.5,0-27.1,0-40.6
		c0-0.8,0-1.6,0-2.4c-2.5-2.3-3.1-3.6-3.1-6.9c0-4.1,0-8.3,0-12.4c0-5.6,4.6-10.1,10.2-10.1c8.4,0,16.7,0,25.1,0
		c0.8,0,1.6,0.1,2.3,0.2c4.5,0.8,8.2,4.9,8.3,9.4c0.1,4.7,0,9.5,0,14.2c0,1.6-0.6,3.1-1.6,4.3c-0.4,0.5-0.8,1-1.4,1.7
		C113.4,36.5,113.4,38.1,113.4,39.7z M133.4,224.7c0-27.3,0-54.6,0-82c-26.3,0-52.6,0-79,0c0,27.3,0,54.6,0,82
		C80.8,224.7,107.1,224.7,133.4,224.7z M129.7,231.8c-24.5,0-48.9,0-73.4,0c-0.6,0-1.2-0.1-1.7,0.1c-0.4,0.4-0.3,0.8-0.3,1.1
		c0,14,0,28.1,0,42.1c0,6,5.1,11.3,10.8,12c1.2,0.2,2.5,0.2,3.7,0.2c17.2,0,34.4,0,51.6,0c5.3,0,9.3-2.5,11.7-7.2
		c0.8-1.6,1.3-3.4,1.3-5.3c0-13.8,0-27.5,0-41.3c0-0.5,0-1,0-1.6C132.2,232.1,131,231.8,129.7,231.8z M131.9,118.5
		c-1.9-5.7-5-10.7-9.2-15c-2-2-4.2-3.8-6.5-5.5c-2.8-2.1-5.2-4.5-6.9-7.6c-1.7-3-2.5-6.2-2.8-9.5c-0.2-1.9,0-3.8-0.1-5.7
		c-8.5,0-17,0-25.5,0c-0.3,0.8-0.2,1.6-0.1,2.5c0.1,3.9-0.5,7.6-2.1,11.1s-3.9,6.3-6.9,8.6c-2.9,2.2-5.7,4.5-8.1,7.2
		c-4.6,5.1-7.6,11-8.8,17.7c-0.3,1.8-0.4,3.6-0.5,5.5c0,2.2,0,4.4,0,6.6c0,0.3-0.1,0.6,0.2,1c26.2,0,52.5,0,78.9,0
		C133.5,129.6,133.7,124,131.9,118.5z M106.3,35.9c-1.2-0.2-24.2-0.2-25.4,0c-0.3,1-0.4,27.4-0.2,31.9c1,0.3,23.8,0.4,25.7,0.1
		C106.7,63,106.6,36.9,106.3,35.9z M109.3,28.5c0.3-0.4,0.2-0.8,0.2-1.1c0-3.6,0-7.2,0-10.9c0-2.6-1.7-3.7-3.7-3.8
		c-7.2-0.3-14.4-0.1-21.6-0.1c-1.4,0-2.7,0.1-4.1,0.2c-1.5,0.1-2.5,1.4-2.6,3.1c0,2.5,0,5,0,7.4c0,1.7,0,3.4,0,5.2
		C88.3,28.5,98.9,28.5,109.3,28.5z"/>
	<path class="st6" d="M133.5,233.7c0,13.8,0,27.5,0,41.3c0,1.9-0.5,3.6-1.3,5.3c-2.4,4.7-6.4,7.2-11.7,7.2c-17.2,0.1-34.4,0-51.6,0
		c-1.2,0-2.5-0.1-3.7-0.2c-5.7-0.7-10.8-6-10.8-12c0-14,0-28.1,0-42.1c0-0.4-0.1-0.7,0.3-1.1c0.5-0.2,1.1-0.1,1.7-0.1
		c24.5,0,48.9,0,73.4,0c1.2,0,2.4,0.3,3.8,0.3C133.5,232.7,133.5,233.2,133.5,233.7z"/>
	<path class="st6" d="M133.5,135.4c0.1-5.8,0.2-11.4-1.6-16.9c-1.9-5.7-5-10.7-9.2-15c-2-2-4.2-3.8-6.5-5.5
		c-2.8-2.1-5.2-4.5-6.9-7.6c-1.7-3-2.5-6.2-2.8-9.5c-0.2-1.9,0-3.8-0.1-5.7c-8.5,0-17,0-25.5,0c-0.3,0.8-0.2,1.6-0.1,2.5
		c0.1,3.9-0.5,7.6-2.1,11.1s-3.9,6.3-6.9,8.6c-2.9,2.2-5.7,4.5-8.1,7.2c-4.6,5.1-7.6,11-8.8,17.7c-0.3,1.8-0.4,3.6-0.5,5.5
		c0,2.2,0,4.4,0,6.6c0,0.3-0.1,0.6,0.2,1C80.8,135.4,107.1,135.4,133.5,135.4z"/>
	<path class="st6" d="M133.4,240.1c0-35.7,0-71.4,0-107.1c-26.3,0-52.6,0-79,0c0,35.7,0,71.4,0,107.1
		C80.8,240.1,107.1,240.1,133.4,240.1z"/>
	<path class="st4" d="M106.4,67.8c0.3-4.9,0.1-30.9-0.2-32c-1.2-0.2-24.2-0.2-25.4,0c-0.3,1-0.4,27.4-0.2,31.9
		C81.7,68,104.5,68.1,106.4,67.8z"/>
	<path class="st4" d="M77.6,28.5c10.7,0,21.3,0,31.7,0c0.3-0.4,0.2-0.8,0.2-1.1c0-3.6,0-7.2,0-10.9c0-2.6-1.7-3.7-3.7-3.8
		c-7.2-0.3-14.4-0.1-21.6-0.1c-1.4,0-2.7,0.1-4.1,0.2c-1.5,0.1-2.5,1.4-2.6,3.1c0,2.5,0,5,0,7.4C77.6,25,77.6,26.7,77.6,28.5z"/>
	<path class="st4" d="M117.3,236.8H70.7c-4.8,0-8.8-3.9-8.8-8.8v-83c0-4.8,3.9-8.8,8.8-8.8h46.6c4.8,0,8.8,3.9,8.8,8.8v83.1
		C126.1,232.9,122.1,236.8,117.3,236.8z"/>
</g>
</svg>
