<?xml version="1.0" encoding="utf-8"?>
<!-- Generator: Adobe Illustrator 27.8.0, SVG Export Plug-In . SVG Version: 6.00 Build 0)  -->
<svg version="1.1" id="Layer_1" xmlns="http://www.w3.org/2000/svg" xmlns:xlink="http://www.w3.org/1999/xlink" x="0px" y="0px"
	 viewBox="0 0 2000 2000" enable-background="new 0 0 2000 2000" xml:space="preserve">
<g>
	<path fill="#F6651C" d="M1264.8,1020.5c7.4-1.3,9.6-7.9,14-12.7c2.2-2.2,2.6-3.9,0.9-7c-3.5-6.1-3.5-13.1-0.9-19.3
		c1.8-4.8-0.4-6.1-3.9-7c-4.4-0.9-8.8,0-11.8,3.5c-14.9,15.8-21.9,34.2-20.6,56.1c0.4,9.6-7,41.6-9.2,51.7c-0.9,1.8-1.3,3.5-2.6,5.3
		c-0.9,1.8,0,2.6,1.8,2.2c3.1-0.4,6.1-0.4,9.2-0.4c9.6,3.1,23.7,2.2,30.7,7c2.6-6.1,2.2-21.5-0.9-28.5c-1.8-3.9-2.2-9.2-0.4-12.7
		c4.8-8.8,5.3-16.7,0-25.9c-1.3-2.6-1.3-5.3-5.3-5.3c-1.8,0-3.1-1.3-3.5-3.5C1262.1,1022.3,1263.5,1020.5,1264.8,1020.5z"/>
	<path fill="#4B195C" d="M1261.7,1304.1c0,0-85-7.9-107.8-5.3c-23.2,2.6-160.4,8.8-194.6,9.2c-34.2,0.4-75.4-3.1-105.6-17.5
		c-29.8-14.5-33.7-7.4-55.2-3.5c-21.5,3.9-54.8,23.7-78,29.8c-23.2,6.1-86.3-12.7-86.3-12.7c0-7.9,0.9-24.1,1.8-31.1
		c5.3-42.9,19.7-82.8,40.3-120.9c10.5-19.3,22.8-37.7,38.1-53.5c1.3-1.3,2.2-2.6,3.9-4.4c-15.3-6.1-29.8-12.7-43.4-20.2
		c-29.4-15.8-55.6-35.5-78.9-58.7c-1.8-1.8-3.5-3.5-5.3-5.7c-5.7-7.9-3.1-16.2,5.7-20.2c2.6-1.3,5.7-1.8,8.3-4.4
		c-8.8-3.9-16.2-9.2-23.7-14.5c-7.4-5.7-14-12.3-19.7-19.3c-5.7-7-4.8-14.9,1.8-20.2c15.8-12.7,26.3-29.4,35.1-47.3
		c7-14.5,12.3-29.8,17.5-45.1c0.9-2.6,0.9-4.8-0.4-7.4c-35.9-69.7-46-143.3-38.1-220.4c3.1-31.1,10.5-60.9,21.5-90.3
		c2.6-7,5.7-13.6,9.6-19.3c8.3-12.3,18.8-15.8,32.4-11c18.4,6.6,35.1,17.1,50.4,28.5c39.9,29.4,73.6,65.3,103,105.2
		c2.2,3.1,3.9,3.9,7.4,2.6c37.7-12.7,76.2-18.4,115.7-15.8c18.8,1.3,37.2,4.4,55.6,9.2c5.3,1.3,8.3,0.4,11.4-4.4
		c19.7-28.5,41.6-54.3,67-78c20.2-18.4,41.2-35.1,65.7-47.3c4.8-2.2,9.6-4.4,14.9-6.1c12.3-3.5,21-0.4,28,10.1
		c10.5,15.3,16.7,32.4,21.5,50c14.9,50.4,16.7,101.7,10.1,153.4c-3.9,32-11.8,63.1-24.5,92.9c-0.9,2.2-0.9,3.9,0,6.1
		c8.3,16.7,17.1,32.9,29.8,46.9c9.2,10.1,20.6,17.5,33.3,22.8c0.4-0.4,0.9-0.4,0.4-1.3c-10.5-28-8.3-55.6,0-83.7
		c10.1-32.4,22.8-63.5,37.7-93.8c3.1-6.6,7.4-8.8,14.9-7.4c38.6,6.6,76.7,13.6,115.2,20.2c9.2,1.8,18,3.5,27.2,4.8
		c6.1,0.9,9.2,4.8,10.1,10.5c4.8,34.6,9.2,69.7,7,104.7c-0.9,18-3.9,35.9-11.4,52.6c-11.4,25.4-31.1,42.1-57,51.3
		c-8.3,3.1-17.1,4.8-25.4,7.4c-9.6,2.6-16.7,11-17.5,20.6c10.5,0.9,21,1.8,30.7,7c17.5,10.1,24.5,26.7,18,46
		c-1.3,3.5-0.9,6.1,1.3,9.2c11,18.4,8.3,37.7-6.6,52.6c-2.6,2.6-3.9,5.7-4.4,9.6c-0.4,12.3-5.3,23.2-14.9,31.1
		c-3.1,2.6-4.8,6.1-9.6,7.9c4.4,2.6,8.3,4.8,12.3,7c5.7,3.5,10.5,7.4,9.2,14.9c-0.9,6.6-5.7,10.1-14.5,11.4
		c-7.9,1.3-15.8,1.3-23.7,0.4c-11.8-0.9-9.2-2.6-12.7,8.8c-11,35.1-24.1,69.2-42.5,101.2c-4.4,7.4-9.2,14.5-14,21.9
		c-0.4,0.4-0.9,0.9-0.9,1.3c0.4,0.9,1.3,20.6,1.8,20.2 M1237.6,1078.4c-3.5,3.5-4.8,8.3-7,12.3c-0.9,1.8,0,2.6,1.8,2.2
		c5.3-0.4,10.5,0,15.3-1.3c7-0.4,14,1.3,21-1.3c2.6-6.1,5.7-12.3,2.6-19.3c-1.8-3.9-2.2-9.2-0.4-12.7c4.8-8.8,5.3-16.7,0-25.9
		c-1.3-2.6-1.3-5.3-5.3-5.3c-1.8,0-3.1-1.3-3.5-3.5c-0.4-1.8,0.9-3.5,2.2-3.5c7.4-1.3,9.6-7.9,14-12.7c2.2-2.2,2.6-3.9,0.9-7
		c-3.5-6.1-3.5-13.1-0.9-19.3c1.8-4.8-0.4-6.1-3.9-7c-4.4-0.9-8.8,0-11.8,3.5c-14.9,15.8-21.9,34.2-20.6,56.1
		c0.4,9.6,4.8,18.8,2.6,28.9C1242,1068.3,1238.9,1073.1,1237.6,1078.4z M1053.6,654.7c29.4,21,54.8,46,76.2,75.4
		c8.3,12.7,16.2,25.9,24.1,40.3c7.9-19.3,12.7-38.1,16.2-57c9.6-54.8,8.3-108.7-7.4-162.1c-3.9-13.6-8.3-27.2-15.8-39
		c-3.5-5.7-7-7-13.6-4.4c-5.3,2.2-10.1,4.8-15.3,7.4c-32.4,18.4-59.2,43.4-84.1,71c-11,12.3-20.6,25-29.8,38.6
		c-1.3,1.8-3.9,3.5,0.4,5.3C1021.6,636.7,1038.2,645,1053.6,654.7z M744.6,1279.1c3.5,3.1,6.1,7.4,9.2,11.4c2.2-3.1,3.5-5.7,4.4-9.2
		c5.3-18.8,22.8-29.8,42.5-27.2c8.3,1.3,17.1,2.2,25.4,3.9c13.6,2.6,28,3.5,40.3,12.3c2.2,1.8,3.1,0,3.9-1.3
		c13.1-20.6,26.7-40.8,38.6-62.2c2.6-4.4,5.3-8.8,7.9-12.7c3.9-2.2,7.9-3.5,12.3-3.9c15.8-2.2,30.7-6.1,45.1-12.7
		c12.3-5.7,22.3-14.5,24.5-28.5c1.3-7,0-7.9-6.6-5.7c-1.3,0.4-2.6,0.9-3.9,0.9c-2.6,0.4-4.8,0.4-6.1-1.8c-1.8-2.6-0.9-4.8,1.3-7
		c3.1-3.1,6.6-5.7,9.2-8.8c6.1-6.6,9.6-14.5,7.4-23.7c-0.9-3.5-2.2-5.3-6.1-3.1s-8.3,3.9-12.7,4.8c-2.6,0.4-6.1,0.9-7.9-2.2
		c-1.8-3.5,0.4-5.7,2.6-7.9c2.6-2.6,5.7-4.8,8.8-6.6c9.6-6.6,20.2-11.4,28.9-18.8c3.9-3.1,7.9-6.6,10.5-11c3.1-6.1,1.3-11-4.4-14
		c-2.6-1.3-5.3-1.8-7.9-1.8c-10.1-0.4-19.7,3.1-28.9,7c-14.9,6.1-28,16.2-42.9,22.8c-8.8,3.9-18,6.6-28,5.7
		c-7.9-0.4-11-2.2-13.6-10.1c-1.8-5.3-3.5-10.5-6.1-15.3c-3.9-7-9.2-12.7-16.7-15.8c-6.1-2.6-12.3-2.2-17.1,2.2
		c-4.8,4.8-3.1,10.5-0.4,15.8c1.3,2.6,2.6,5.7,3.9,8.3c4.8,10.1,6.1,21,4.4,32c-1.3,9.6-4.8,18.8-8.8,28c-3.5,4.8-7,9.6-10.5,14
		c-0.4,0.4-1.3,0.9-1.8,1.8c-27.2,31.1-56.1,60.9-86.3,89c-9.2,8.3-18.8,16.7-30.2,21.9c-2.6,1.3-5.3,2.6-7.4,0
		c-2.6-2.6-0.9-5.7,0.4-7.9c3.9-6.6,9.2-11.4,14.5-16.7c17.5-17.5,35.9-34.2,52.1-52.6c16.2-15.8,31.1-33.3,47.3-51.3
		c-13.1-0.9-25-2.6-36.8-4.4c-19.3-4.4-38.6-8.3-57.4-14.5c-2.6-0.9-3.5,0.9-4.8,2.2c-12.7,11.4-23.2,25-32.4,39.4
		c-21,32.9-34.6,68.8-45.1,106.5c-3.1,10.5-3.1,21.5-3.9,32.4c4.4-1.8,7.4-3.9,11.4-4.4 M730.2,664.3c13.6-9.6,27.2-18.4,42.5-25
		c5.3-2.2,5.3-3.9,2.2-8.3c-27.2-35.1-57-67-92.9-93.3c-13.6-10.1-28-19.7-44.3-25.4c-7.4-2.6-11.4-0.9-14.9,6.1
		c-2.2,4.4-3.9,8.8-5.7,13.1c-17.1,48.2-24.1,97.7-21.5,148.5c2.2,37.7,8.8,74.5,22.3,110c2.2,6.1,3.9,12.3,8.8,18
		c3.1-7.4,5.7-14.5,8.8-21c4.4-9.6,9.2-19.3,14-29.4c0.4-0.4,0.9-1.3,1.3-1.8C671.5,719.9,697.3,688.8,730.2,664.3z M1429.5,781.3
		c-0.4-18.8-3.1-37.2-5.3-55.6c-0.4-5.3-2.2-7-7-7.4c-43.8-7.4-87.6-14.9-131.5-22.8c-4.4-0.9-5.7,0.4-7,3.5
		c-2.2,4.8-3.9,9.2-6.1,14c-12.3,27.6-37.2,87.2-34.6,108.7c-1.3,24.1,5.7,45.1,21.5,63.5c8.8,10.1,19.7,17.5,30.7,24.5
		s16.7,17.1,17.5,30.2c0.4,5.7-0.4,11-0.4,16.2c10.5-1.8,10.5-1.8,13.6-11c3.9-11.8,11-20.6,23.2-25c7-2.6,14.5-4.4,21.9-6.6
		c42.9-14.5,59.6-45.1,62.7-81.9c0.4-2.6,0.4-5.3,0.9-7.9C1430.9,809.8,1430.4,795.3,1429.5,781.3z M586,946.5
		c6.1,6.1,12.7,11.4,20.2,16.2c8.3,5.3,17.1,9.6,25.9,14c8.3,3.9,8.8,11.8,1.8,17.5c-1.8,1.3-3.9,2.6-6.1,3.5
		c-4.4,2.2-8.8,3.9-13.6,6.1c8.8,9.2,17.5,16.7,27.2,24.1c37.7,28.5,79.8,47.3,124.4,60.9c23.7,7,48.2,12.7,72.7,17.1
		c2.2,0.4,5.7,2.6,7-1.3c4.4-11.4,7-22.3,0.9-34.2c-3.1-5.3-5.3-11-7-16.7c-4.4-17.1,5.7-32.9,22.8-35.9c11.8-2.2,21.9,1.3,30.7,8.8
		c8.8,7.4,15.3,17.1,18.8,28c1.3,4.4,3.5,5.3,7.4,4.8c10.1-1.3,18.8-5.7,27.2-11c15.8-9.2,31.1-18.8,49.5-22.8
		c10.5-2.6,21-2.6,31.1,1.8c15.8,7.4,20.6,24.1,11.4,39c-5.7,8.8-13.1,14.9-21.9,20.2c-3.1,1.8-3.9,3.5-2.6,7.4
		c4.4,10.1,3.9,20.2-0.9,30.2c-1.3,2.6-1.3,4.4,0,7c3.9,9.2,3.9,18.4,0.9,27.6c-4.8,14.5-15.3,23.7-27.6,30.7
		c-15.8,8.8-32.9,13.6-50.4,16.7c-3.1,0.4-5.3,1.8-6.6,4.8c-8.8,14.9-17.5,29.4-26.3,43.8c-4.8,8.3-10.1,16.7-15.8,25
		c5.7,0,10.5,0,15.8,0c9.6,0,18.8,1.8,25.9,8.8c2.2,2.2,4.4,2.2,7,1.8c11-0.9,22.3-2.2,33.3-3.1c8.8-0.9,17.1,0,24.5,4.4
		c2.6,1.8,4.4,0.9,6.1-1.3c6.1-6.6,14-10.5,23.2-11.8c7.4-0.9,14.9-1.8,22.3-2.6c2.2,0,4.8,0,7-0.4c11.8-0.4,24.1-2.6,35.5,0.9
		c5.7,1.8,5.7-0.4,5.7-4.8c0-16.2,0-32,0.4-48.2c0-3.5-0.4-8.8,4.4-9.2c4.8-0.4,5.3,5.3,6.1,8.8c2.2,10.1,4.4,20.2,4.8,30.7
		c0,2.6,0.4,4.4,2.6,6.1c4.8,3.5,9.6,7.4,14.5,11c5.7,4.4,11.4,8.3,18.8,3.5c0.9-0.4,2.2-0.4,3.5-0.4c12.3-1.3,25-2.6,37.2-3.9
		c16.2-2.2,30.2,1.8,40.8,14.5c2.6,3.1,3.9,2.2,6.1,0c7.4-7,14-15.3,19.7-24.1c21-33.3,35.1-69.7,47.3-106.5c2.2-7,2.2-7-5.3-7.9
		c-0.4,0-1.3,0-1.8,0c-26.3-4.4-53-8.3-78.4-18c-3.1-1.3-4.4-0.4-5.7,2.2c-3.9,7.9-8.3,15.3-12.7,23.2c-7.9,14-15.3,28-24.5,41.6
		c-1.8,2.6-3.5,5.3-7,3.9c-3.5-1.3-3.9-4.8-3.1-7.9c0.9-3.9,1.8-7.9,3.1-11.4c1.3-3.1,0.9-4.8-1.8-7c-18-14.9-34.6-30.7-50.8-47.3
		c-11.4-11.4-23.2-22.8-35.9-33.3c-1.3-1.3-2.6-3.1-5.3-1.8c-5.3,2.2-11,3.9-16.7,6.1c-3.5-0.4-7.4,0.4-8.8-3.9
		c-1.3-4.4,1.8-7.4,5.3-9.6c3.5-2.6,7.4-4.8,11.4-7c18.8-11,37.2-22.3,54.3-35.5c31.5-24.1,58.7-52.1,80.2-85.9
		c4.4-6.6,3.9-6.6-3.1-8.8c-2.2-0.4-4.4-1.3-6.6-2.2c-12.3-4.4-14-11.4-4.4-20.6c12.3-11.4,24.1-23.7,31.1-39.4
		c2.6-2.6,0.9-3.9-1.8-5.3c-25-13.1-40.8-35.1-53.9-59.2c-11-20.6-20.6-41.6-32.9-61.8c-39-62.7-92.9-104.7-165.2-120.5
		c-57.4-12.7-113.1-7.9-166.9,15.3C729.3,679.6,685.5,727,657,789.2c-11,23.2-18,48.2-26.7,72.3c-10.5,28-23.2,55.2-44.7,76.2
		C580.3,942.1,583,944.3,586,946.5z M1205.2,927.6c2.6,0.9,5.3,1.3,7.4,2.2c7.9,2.6,11.4,8.8,8.8,17.1c-0.9,2.6-1.8,4.8-3.1,7
		c-17.5,31.5-40.8,58.3-67.5,82.4c-17.5,15.8-35.9,29.4-56.5,41.2c-2.6,1.3-3.1,2.2-0.4,4.4c3.5,3.1,7,6.1,10.5,9.2
		c21.9,20.6,42.5,41.6,65.3,61.3c2.6,2.2,3.9,3.1,5.7-0.9c5.7-10.5,11.8-21.5,17.5-32c1.3-1.8,1.8-3.9,0.9-6.1
		c-1.8-7.9,1.8-14.5,9.6-17.1c3.5-0.9,5.3-3.1,6.6-6.1c4.4-9.2,8.8-18.4,13.6-27.2c3.5-6.1,3.9-11.8,2.6-18.8
		c-4.8-28.9,2.6-54.8,21.9-77.1c9.6-11,25.4-17.1,40.3-5.7c2.6,2.2,3.9,1.8,4.4-1.8c0.9-5.7,2.2-11.4,1.8-17.1
		c-0.4-9.2-3.1-17.5-11.4-22.3c-19.3-11.4-35.9-25.4-47.8-45.6C1231.9,897,1218.3,911.9,1205.2,927.6z M1325.7,1006.1
		c-7.9-0.4-15.3,0.4-22.8,2.6c-7.4,2.6-14,6.6-16.2,14.9c-2.2,8.3,3.5,14.5,11.8,12.7c7-1.8,14-1.3,21,0c3.5,0.9,7,1.8,10.5,3.1
		c2.6,0.9,5.7,2.2,4.8,5.7s-3.9,3.5-7.4,2.6c-1.3-0.4-3.1-0.9-4.4-0.9c-7.9-1.3-15.8-2.2-23.7,0s-13.1,7.9-13.6,15.3
		c-0.4,6.6,3.9,11.8,12.3,14.5c4.4,1.3,8.8,1.8,13.1,3.1c3.9,1.3,9.2,2.6,8.8,7.9c-0.4,5.3-5.7,3.9-9.6,4.4c-1.8,0-3.5,0-3.9,2.6
		c0,2.2,0,3.5,2.6,4.4c6.1,2.2,11.8,4.8,18,7.4c2.2,0.9,3.5,0.4,5.7-0.4c14.5-7.9,24.1-18.8,22.3-36.4c-0.4-4.8,1.3-8.3,4.8-11
		c14-11,16.2-24.5,5.7-39c-4.4-5.7-4.4-10.1-1.8-16.2c6.1-13.6,1.8-24.1-12.3-30.2c-5.3-2.2-11.4-3.9-17.1-4.4
		c-13.1-1.3-25.4,0.4-36.4,8.8c-6.1,4.8-7.4,11.8-4.4,18c1.8,3.1,3.9,4.8,7.4,3.1c4.4-1.8,8.8-2.2,13.1-2.6
		c6.6-0.4,13.1-0.4,19.3,1.8c2.2,0.9,4.4,2.2,3.9,5.3c-0.4,2.6-2.6,3.5-5.3,3.1C1330.9,1006.1,1328.3,1006.1,1325.7,1006.1z
		 M1348.9,1135.4c-14-8.8-28.5-16.2-43.4-22.3c-9.2-3.5-12.7-9.6-11.8-18.8c0-1.8,0.4-3.1-1.8-3.9c-3.1-1.3-5.7-2.6-8.8-3.5
		c-3.5,16.7-5.3,18.4-21.9,18.8c-13.1,0.4-26.7,1.3-39.9,3.1c-3.1,0.4-6.1,0.4-10.1,3.5C1256.9,1127.9,1302.5,1135.4,1348.9,1135.4z
		"/>
	<path fill="#FCFCFC" d="M1044.8,1276.4c-7.4,0.9-14.9,1.3-22.3,2.6c-9.2,1.3-17.1,4.8-23.2,11.8c-2.2,2.2-3.5,3.1-6.1,1.3
		c-7.4-4.4-15.8-5.3-24.5-4.4c-11,1.3-22.3,2.2-33.3,3.1c-2.6,0.4-4.8,0.4-7-1.8c-7-7-16.2-9.2-25.9-8.8c-4.8,0-10.1,0-15.8,0
		c5.3-8.3,10.5-16.7,15.8-25c8.8-14.5,17.5-29.4,26.3-43.8c1.8-3.1,3.5-3.9,6.6-4.8c17.5-3.1,34.6-7.9,50.4-16.7
		c12.7-7,22.8-16.7,27.6-30.7c3.1-9.2,3.1-18.4-0.9-27.6c-0.9-2.6-1.3-4.4,0-7c5.3-9.6,5.3-20.2,0.9-30.2c-1.8-3.9-0.9-5.3,2.6-7.4
		c8.8-5.3,16.2-11.8,21.9-20.2c9.6-14.5,4.4-31.5-11.4-39c-10.1-4.8-20.6-4.4-31.1-1.8c-18,4.4-33.7,13.6-49.5,22.8
		c-8.3,4.8-17.1,9.6-27.2,11c-3.9,0.4-6.1-0.4-7.4-4.8c-3.5-11-10.1-20.6-18.8-28c-8.8-7.4-18.8-11-30.7-8.8
		c-17.5,3.1-27.6,18.8-22.8,35.9c1.8,5.7,3.9,11.4,7,16.7c6.1,11.4,3.5,22.8-0.9,34.2c-1.3,3.9-4.8,1.8-7,1.3
		c-24.5-3.9-48.6-9.6-72.7-17.1c-44.7-13.6-87.2-32.4-124.4-60.9c-9.6-7-18.8-14.9-27.2-24.1c4.8-2.2,9.2-3.9,13.6-6.1
		c2.2-0.9,4.4-2.2,6.1-3.5c7.4-5.7,6.6-13.6-1.8-17.5c-8.8-4.4-17.5-8.8-25.9-14c-7-4.8-14-9.6-20.2-16.2
		c20.2,2.2,39.4-2.2,58.3-8.3c25.9-8.3,43.4-25,51.7-51.3c3.9-12.3,8.8-23.7,14-35.5c8.8-18.8,19.7-35.9,35.9-49.5
		c34.6-28.9,73.6-27.2,104.7,5.3c8.8,9.2,16.2,19.3,23.2,30.2c17.5,28.9,31.1,59.2,45.1,89.8c-4.8,3.1-9.2,6.6-8.8,12.7
		c0.4,4.8,2.2,8.8,5.3,12.3c11,12.7,25.4,19.3,41.6,22.3c2.2,0.4,5.3,0,7.4-0.9c14.5-5.7,26.7-14,34.6-27.6
		c7.4-12.7,3.5-22.3-10.1-27.2c-1.3-0.4-2.2-0.9-3.5-1.3c-7-18.4-13.6-37.2-15.3-57c-2.2-27.2,0.9-53.5,13.6-77.6
		c15.8-29.8,48.6-43.8,81.5-29.4c18.8,8.3,32.9,21.9,45.1,37.7c13.6,18,22.3,38.6,30.7,59.2c5.3,12.7,14,21.9,26.3,28
		c14.5,7,29.4,7.4,44.7,4.4c-7,15.8-18.8,28-31.1,39.4c-9.6,8.8-8.3,16.2,4.4,20.6c2.2,0.9,4.4,1.3,6.6,2.2c7.4,1.8,7.4,1.8,3.1,8.8
		c-21.5,33.7-48.6,61.8-80.2,85.9c-17.1,13.1-35.5,25-54.3,35.5c-3.9,2.2-7.9,4.8-11.4,7s-6.6,5.3-5.3,9.6c1.3,4.4,5.7,3.5,8.8,3.9
		c3.9,10.5,8.8,21,11.4,32c5.3,19.7,9.6,39.4,6.6,60c-0.4,2.6-0.9,5.7-3.1,6.6c-2.6,0.9-3.9-2.2-5.3-3.9c-3.1-2.6-4.4-7-9.2-8.8
		c0,11.8,1.3,22.8,0.9,33.7C1054,1237,1050.5,1257.2,1044.8,1276.4z M796.8,936.4c23.2-0.4,44.3-6.1,63.5-18
		c5.7-3.5,8.3-7.9,8.8-14.5c0.9-28.5-8.3-53.9-28-74.5c-23.7-25-61.3-22.8-83.3,3.5c-16.2,19.7-22.3,42.9-22.8,68.4
		c0,9.6,3.9,16.2,11.8,21.5C762.2,932.5,779.3,936,796.8,936.4z M1040.4,905.7c7.9,0,15.3-0.9,22.8-2.6c18-3.9,34.2-11.4,46.9-25.4
		c3.5-3.9,5.3-8.3,4.8-13.6c-2.2-24.5-10.1-46.4-28-64.4c-23.7-24.1-58.7-21.5-78.4,6.1c-18,25-20.6,53-14.9,82.4
		c0.9,3.9,3.5,6.6,7.4,8.8C1013.3,903.5,1026.8,905.7,1040.4,905.7z M963.7,1016.6c4.8,0.4,7.9-1.3,8.3-3.9c0.9-3.5-1.3-5.3-3.9-7
		c-0.9-0.4-1.8-0.9-2.6-1.3c-19.3-7.9-39-8.3-58.3-0.4c-1.8,0.9-3.9,2.2-5.3,3.5c-1.8,1.8-3.1,3.9-2.2,6.1c0.9,2.6,3.5,3.9,6.1,3.5
		c3.5-0.4,7-0.9,10.5-2.2c11-3.5,22.3-3.9,33.7-1.3C955,1014.8,959.8,1015.7,963.7,1016.6z"/>
	<path fill="#F6651C" d="M919.5,927.6c-14-30.2-27.6-60.9-45.1-89.8c-6.6-11-14-21-23.2-30.2c-31.5-32.4-70.5-34.2-104.7-5.3
		c-16.2,13.6-27.2,30.7-35.9,49.5c-5.3,11.4-10.5,23.2-14,35.5c-8.3,26.3-26.3,42.5-51.7,51.3c-18.8,6.1-38.1,10.1-58.3,8.3
		c-3.1-2.2-5.7-4.4-1.8-8.3c21.9-21.5,34.6-48.2,44.7-76.2c8.8-24.1,16.2-48.6,26.7-72.3c28.9-62.2,72.7-109.5,135.8-137.2
		c53.9-23.2,110-28,166.9-15.3c72.7,15.8,126.6,57.8,165.2,120.5c12.3,19.7,21.9,41.2,32.9,61.8c13.1,24.1,28.9,46,53.9,59.2
		c2.2,1.3,3.9,2.6,1.8,5.3c-15.3,2.6-30.2,2.2-44.7-4.4c-12.3-6.1-21.5-14.9-26.3-28c-8.3-20.6-17.1-41.2-30.7-59.2
		c-12.3-15.8-26.3-29.4-45.1-37.7c-32.9-14.5-65.7-0.4-81.5,29.4c-12.7,24.5-15.8,50.8-13.6,77.6c1.3,20.2,8.3,38.6,15.3,57
		c-3.5-0.4-7-0.4-10.5-0.9C956.3,916.7,937.5,920.6,919.5,927.6z M807.3,720.4c-7,0.4-14,1.8-20.6,4.4
		c-12.3,4.8-23.2,12.3-30.7,23.2c-2.2,3.1-3.1,6.6-0.4,9.6c2.6,2.6,5.7,2.2,8.8,0.9c1.8-0.9,3.1-1.3,4.8-2.2
		c9.2-4.8,18.8-8.8,28.9-10.5c4.8-0.9,9.6-0.9,14.5-1.8c8.8-1.3,13.6-8.3,11-15.8C821.8,723.5,816.1,720.4,807.3,720.4z
		 M1013.3,696.3c-5.3,0-10.1,0.4-14.9,3.1c-4.8,2.2-7,6.1-6.6,11.4c0.4,5.3,3.1,8.8,8.8,10.1c3.5,0.9,7,0.9,10.5,0.4
		c5.3-0.9,11-0.4,16.2,0c8.8,0.9,17.1,3.9,25.9,5.7c3.1,0.9,6.6,1.3,8.3-2.2c1.8-3.5,0.4-6.6-2.2-8.8
		C1046.6,703.3,1031.2,696.7,1013.3,696.3z"/>
	<path fill="#F6651C" d="M1044.8,1276.4c5.7-19.7,9.2-39.4,10.1-60c0.4-11-0.9-22.3-0.9-33.7c4.8,1.8,6.1,6.1,9.2,8.8
		c1.8,1.8,2.6,4.8,5.3,3.9c2.6-0.9,3.1-3.9,3.1-6.6c3.1-20.6-1.3-40.3-6.6-60c-3.1-11-7.4-21.5-11.4-32c5.7-2.2,11-3.9,16.7-6.1
		c2.6-0.9,3.5,0.9,5.3,1.8c12.3,10.5,24.1,21.9,35.9,33.3c16.2,16.2,33.3,32.4,50.8,47.3c2.6,2.2,3.1,3.9,1.8,7
		c-1.3,3.5-2.2,7.4-3.1,11.4c-0.4,3.1,0,6.6,3.1,7.9c3.5,1.3,5.3-1.3,7-3.9c8.8-13.6,16.7-27.6,24.5-41.6
		c4.4-7.9,8.8-15.3,12.7-23.2c1.3-2.6,2.6-3.5,5.7-2.2c25.4,9.6,51.7,13.6,78.4,18c0.4,0,1.3,0,1.8,0c7.4,0.9,7.4,0.9,5.3,7.9
		c-12.7,36.8-26.3,73.6-47.3,106.5c-5.7,8.8-12.3,16.7-19.7,24.1c-2.2,2.2-3.5,2.6-6.1,0c-10.5-12.7-24.5-16.7-40.8-14.5
		c-12.3,1.8-25,2.6-37.2,3.9c-1.3,0-2.6,0-3.5,0.4c-7.4,4.4-13.1,0.9-18.8-3.5c-4.8-3.9-9.6-7.4-14.5-11c-2.2-1.8-2.6-3.5-2.6-6.1
		c-0.4-10.5-2.6-20.6-4.8-30.7c-0.9-3.5-0.9-9.2-6.1-8.8c-4.8,0.4-3.9,5.7-4.4,9.2c-0.4,16.2-0.4,32-0.4,48.2c0,4.8,0,6.6-5.7,4.8
		c-11.8-3.1-23.7-1.3-35.5-0.9C1049.6,1276.4,1047,1276.4,1044.8,1276.4z"/>
	<path fill="#F6651C" d="M649.6,757.2c-4.8,9.6-9.2,19.3-14,29.4c-3.1,6.6-5.7,13.6-8.8,21c-4.4-5.7-6.1-11.8-8.8-18
		c-13.6-35.5-20.2-72.3-22.3-110c-3.1-50.8,4.4-100.3,21.5-148.5c1.8-4.4,3.5-8.8,5.7-13.1c3.5-7,7.4-8.8,14.9-6.1
		c16.2,6.1,30.2,15.3,44.3,25.4c35.9,26.3,65.7,58.3,92.9,93.3c3.1,4.4,3.1,6.1-2.2,8.3c-14.9,7-28.9,15.3-42.5,25
		c-18.4-29.8-40.3-57-66.2-80.6c-3.9-3.9-8.3-7.4-12.7-10.5c-7-5.3-11-3.9-14,4.4c-1.3,3.9-2.6,8.3-3.5,12.3
		c-7.9,38.1-7.4,76.2-0.4,114.4C636.9,722.6,640.8,740.5,649.6,757.2z"/>
	<path fill="#F6651C" d="M1019.4,1043.3c-2.6-1.3-5.3-1.8-7.9-1.8c-10.1-0.4-19.7,3.1-28.9,7c-14.9,6.1-28,16.2-42.9,22.8
		c-8.8,3.9-18,6.6-28,5.7c-7.9-0.4-11-2.2-13.6-10.1c-1.8-5.3-3.5-10.5-6.1-15.3c-3.9-7-9.2-12.7-16.7-15.8
		c-6.1-2.6-12.3-2.2-17.1,2.2c-4.8,4.8-3.1,10.5-0.4,15.8c1.3,2.6,2.6,5.7,3.9,8.3c4.8,10.1,6.1,21,4.4,32
		c-1.3,9.6-21.9,40.3-25.9,50c-25.4,28.9-52.6,56.5-81.1,82.8c-9.2,8.3-18.8,16.7-30.2,21.9c-2.6,1.3-5.3,2.6-7.4,0
		c-2.6-2.6-0.9-5.7,0.4-7.9c3.9-6.6,9.2-11.4,14.5-16.7c17.5-17.5,35.9-34.2,52.1-52.6c-0.9-19.3,4.4-37.7,10.5-55.6
		c-19.3-4.4-38.6-8.3-57.4-14.5c-2.6-0.9-3.5,0.9-4.8,2.2c-12.7,11.4-23.2,25-32.4,39.4c-21,32.9-34.6,68.8-45.1,106.5
		c-3.1,10.5-3.1,21.5-3.9,32.4c4.4-1.8,32.9,5.7,48.6,7.9c21,2.6,46.9-3.9,50,0c2.2-3.1,3.5-5.7,4.4-9.2
		c5.3-18.8,22.8-29.8,42.5-27.2c8.3,1.3,17.1,2.2,25.4,3.9c13.6,2.6,28,3.5,40.3,12.3c2.2,1.8,3.1,0,3.9-1.3
		c11.8-18.4,24.1-36.8,35.1-56.1l0,0c3.9-2.2,19.3-22.8,23.7-23.2c15.8-2.2,30.7-6.1,45.1-12.7c12.3-5.7,22.3-14.5,24.5-28.5
		c1.3-7,0-7.9-6.6-5.7c-1.3,0.4-2.6,0.9-3.9,0.9c-2.6,0.4-4.8,0.4-6.1-1.8c-1.8-2.6-0.9-4.8,1.3-7c3.1-3.1,6.6-5.7,9.2-8.8
		c6.1-6.6,9.6-14.5,7.4-23.7c-0.9-3.5-2.2-5.3-6.1-3.1s-8.3,3.9-12.7,4.8c-2.6,0.4-6.1,0.9-7.9-2.2c-1.8-3.5,0.4-5.7,2.6-7.9
		c2.6-2.6,5.7-4.8,8.8-6.6c9.6-6.6,20.2-11.4,28.9-18.8c3.9-3.1,7.9-6.6,10.5-11C1027.3,1051.2,1025.5,1046,1019.4,1043.3z"/>
	<path fill="#F6651C" d="M1053.6,654.7c-15.8-9.6-32-18.4-49.1-25c-4.4-1.8-1.3-3.5-0.4-5.3c9.2-13.6,18.8-26.3,29.8-38.6
		c24.5-27.6,51.3-52.6,84.1-71c4.8-2.6,10.1-5.3,15.3-7.4c6.1-2.6,9.6-1.3,13.6,4.4c7.4,12.3,11.8,25.4,15.8,39
		c15.8,53.5,17.1,107.8,7.4,162.1c-3.5,19.3-8.3,37.7-16.2,57c-7.9-14.5-15.8-27.6-24.1-40.3c0.4-0.4,0.9-0.9,0.9-1.3
		c11.4-31.5,14.9-64,14.5-96.8c-0.4-18.8-3.1-37.2-8.8-55.6c-3.9-12.7-8.3-14-18.4-5.3c-5.7,5.3-11.4,11-16.7,16.7
		C1082.9,607.8,1067.6,630.6,1053.6,654.7z"/>
	<path fill="#FCFCFC" d="M649.6,757.2c-8.8-16.7-12.7-35.1-15.8-53.5c-6.6-38.1-7-76.2,0.4-114.4c0.9-4.4,2.2-8.3,3.5-12.3
		c3.1-8.3,7-9.6,14-4.4c4.4,3.1,8.8,7,12.7,10.5c25.4,24.1,47.3,51.3,66.2,80.6c-32.9,25-58.7,55.6-79.3,91.1
		C650.4,755.9,650,756.8,649.6,757.2z"/>
	<path fill="#FCFCFC" d="M1053.6,654.7c13.6-24.1,29.4-46.9,47.8-67.5c5.3-5.7,11-11.4,16.7-16.7c10.1-8.8,14.9-7.4,18.4,5.3
		c5.3,18,8.3,36.8,8.8,55.6c0.4,33.3-3.1,65.7-14.5,96.8c0,0.4-0.4,0.9-0.9,1.3C1108.8,700.7,1083.4,675.7,1053.6,654.7z"/>
	<path fill="#F6651C" d="M1325.7,1006.1c2.6,0,5.3,0,7.4,0c2.6,0,4.8-0.4,5.3-3.1c0.4-2.6-1.8-4.4-3.9-5.3
		c-6.1-2.2-12.7-2.2-19.3-1.8c-4.4,0.4-9.2,0.9-13.1,2.6c-3.9,1.8-5.7,0-7.4-3.1c-3.1-6.1-1.8-13.1,4.4-18
		c10.5-8.3,23.2-10.1,36.4-8.8c5.7,0.4,11.8,1.8,17.1,4.4c13.6,6.1,18.4,16.7,12.3,30.2c-3.1,6.6-2.6,10.5,1.8,16.2
		c10.5,14.5,7.9,28-5.7,39c-3.5,3.1-5.3,6.1-4.8,11c1.8,18-7.9,28.5-22.3,36.4c-1.8,0.9-3.5,1.8-5.7,0.4c-5.7-2.6-11.8-5.3-18-7.4
		c-2.6-0.9-2.6-2.6-2.6-4.4c0-2.6,2.2-2.2,3.9-2.6c3.9-0.4,9.2,0.4,9.6-4.4c0.4-5.3-4.8-6.6-8.8-7.9c-4.4-1.3-8.8-1.8-13.1-3.1
		c-8.3-2.6-12.7-7.9-12.3-14.5c0.4-7,5.3-12.7,13.6-15.3c7.9-2.2,15.8-1.8,23.7,0c1.8,0.4,3.1,0.4,4.4,0.9c3.1,0.9,6.1,0.9,7.4-2.6
		c0.9-3.5-2.2-4.8-4.8-5.7c-3.5-1.3-7-2.6-10.5-3.1c-7-1.3-14-1.3-21,0c-8.3,1.8-14-4.4-11.8-12.7c2.2-8.3,8.8-12.3,16.2-14.9
		C1310.4,1006.5,1318.2,1005.6,1325.7,1006.1z"/>
	<path fill="#F9F6F8" d="M1348.9,1135.4c-46.9,0-92-7.4-137.6-23.2c3.9-3.1,7-3.1,10.1-3.5c13.1-1.8,26.3-2.6,39.9-3.1
		c16.2-0.4,18.4-2.2,21.9-18.8c3.1,1.3,6.1,2.6,8.8,3.5c2.2,0.9,1.8,2.2,1.8,3.9c-0.9,9.2,2.6,15.3,11.8,18.8
		C1320.9,1118.7,1335.3,1126.6,1348.9,1135.4z"/>
	<path fill="#F9F6F8" d="M788.9,1172.6c-0.9-19.3,4.4-37.7,10.5-55.6c11.8,1.8,23.7,3.5,36.8,4.4
		C820,1139.3,805.1,1156.4,788.9,1172.6z"/>
	<path fill="#4B195C" d="M796.8,936.4c-17.5-0.4-34.6-3.9-50-13.6C739,918,735,911.4,735,901.4c0.4-25.4,6.1-48.6,22.8-68.4
		c21.9-26.7,59.6-28.5,83.3-3.5c19.7,20.6,28.9,45.6,28,74.5c0,6.6-3.1,11-8.8,14.5C840.6,930.3,819.6,936,796.8,936.4z
		 M848.1,860.2c-6.1,24.5-28.9,32.9-44.7,26.7c-11.8-4.4-19.7-12.7-22.8-25c-3.5-11.8-0.9-22.8,6.6-34.2c-4.4,2.2-7.4,3.5-10.5,5.3
		c-0.9,0.4-1.3,1.3-2.2,1.8c-20.6,17.1-26.3,40.3-26.7,65.7c0,6.6,3.1,10.1,8.3,12.7c33.7,17.5,66.2,13.6,97.7-4.8
		c1.8-1.3,3.5-2.6,3.5-5.3C857.7,888.7,854.6,875.1,848.1,860.2z M834.9,845.3c0-4.8-5.3-10.1-9.6-10.1c-5.3,0-9.2,4.4-9.2,10.1
		c0,5.3,4.4,10.1,9.6,9.6C830.5,855.3,834.9,850.5,834.9,845.3z"/>
	<path fill="#4B195C" d="M1040.4,905.7c-14,0-27.2-2.2-39.9-8.8c-3.9-1.8-6.6-4.4-7.4-8.8c-5.7-29.4-3.5-57.4,14.9-82.4
		c19.7-27.6,54.8-30.2,78.4-6.1c17.5,18,25.4,39.9,28,64.4c0.4,5.3-1.3,9.6-4.8,13.6c-12.7,14-28.5,21.5-46.9,25.4
		C1055.8,904.9,1048.3,905.7,1040.4,905.7z M1032.1,802.3c-8.3,4.4-14,9.6-18,17.1c-11,20.2-14,41.2-10.1,63.5
		c0.4,3.5,2.6,4.4,5.3,5.7c11,4.4,22.8,6.1,34.6,5.7c19.3-0.9,37.2-6.1,52.6-19.3c2.6-2.2,5.7-4.4,5.7-7.9c0-12.3-3.1-24.1-9.2-35.5
		c-9.6,22.3-27.6,31.5-46,24.1C1027.7,847,1021.6,826.4,1032.1,802.3z M1069.3,825.1c4.8,0,8.8-3.9,9.2-8.8c0-5.3-4.4-10.1-8.8-10.1
		c-4.8,0-9.2,4.4-9.2,9.6C1060.1,820.7,1064.5,825.1,1069.3,825.1z"/>
	<path fill="#4B195C" d="M919.5,927.6c18-7,36.8-11,56.1-9.6c3.5,0,7,0.4,10.5,0.9c1.3,0.4,2.2,0.9,3.5,1.3
		c14,4.8,17.5,14.5,10.1,27.2c-7.9,13.6-20.2,21.9-34.6,27.6c-2.2,0.9-5.3,1.3-7.4,0.9c-16.2-3.5-30.7-9.6-41.6-22.3
		c-3.1-3.5-4.8-7.4-5.3-12.3C910.3,933.8,914.2,930.3,919.5,927.6z"/>
	<path fill="#4B195C" d="M972.1,1002.6c0.9,3.5-1.3,5.3-3.9,7c-0.9,0.4-1.8,0.9-2.6,1.3c-19.3,7.9-39,8.8-58.3,0.4
		c-1.8-0.9-3.5-2.2-5.3-3.5c-2.2-1.3-3.1-3.5-2.2-6.1c0.9-2.6,3.5-3.9,6.1-3.5c3.5,0.4,7,0.9,10.5,2.2c11.4,3.5,22.3,3.5,33.7,1.3
		c4.8-0.9,9.6-2.2,13.6-3.1C968.6,998.2,971.6,999.5,972.1,1002.6z"/>
	<path fill="#4B195C" d="M807.3,720.4c9.2,0,14.5,2.6,16.7,8.3c2.6,7.4-2.2,14.5-11,15.8c-4.8,0.9-9.6,0.9-14.5,1.8
		c-10.5,1.3-19.7,5.7-28.9,10.5c-1.8,0.9-3.1,1.8-4.8,2.2c-3.1,1.3-6.1,1.8-8.8-0.9c-2.6-3.1-1.8-6.6,0.4-9.6
		c7.4-11.4,18.4-18.4,30.7-23.2C793.3,722.6,799.9,720.8,807.3,720.4z"/>
	<path fill="#4B195C" d="M1013.3,696.3c17.5,0.4,32.9,7,46,19.3c2.6,2.2,4.4,5.7,2.2,8.8c-1.8,3.5-5.3,2.6-8.3,2.2
		c-8.8-1.8-16.7-4.8-25.9-5.7c-5.7-0.4-11-0.9-16.2,0c-3.5,0.4-7,0.4-10.5-0.4c-5.3-1.3-7.9-4.8-8.8-10.1c-0.4-5.3,1.8-9.2,6.6-11.4
		C1003.2,696.7,1008.4,696.3,1013.3,696.3z"/>
	<path fill="#712D9E" d="M1420.3,829.5c-1.8,9.2-2.6,18.4-5.7,27.2c-10.1,28.9-32,43.8-60.5,52.1c-56.5,16.7-117.9-35.9-106.5-97.7
		c0.4-1.8,0.4-3.9,0.4-5.7s0.4-3.1,1.3-4.8c0.4-1.8,0.9-3.1,1.3-4.8c3.9,0,15.3,8.3,39.4,11c18,4.4,36.4,3.1,54.3,3.1
		c19.3-0.4,38.6,1.3,56.5,8.8c4.4,1.8,7.9,4.8,12.7,5.7c0.9,3.1,4.4,2.6,5.7,4.8C1420.3,829.1,1420.3,829.5,1420.3,829.5z"/>
	<path fill="#F9F6F8" d="M848.1,860.2c6.6,14.5,9.6,28.5,8.8,43.4c0,2.6-1.8,3.9-3.5,5.3c-31.5,18.8-64.4,22.3-97.7,4.8
		c-5.3-2.6-8.3-6.1-8.3-12.7c0.4-25.4,6.6-48.6,26.7-65.7c0.9-0.4,1.3-1.3,2.2-1.8c3.1-1.8,6.1-3.1,10.5-5.3
		c-7.4,11-9.6,21.9-6.6,34.2c3.5,12.3,11.4,20.2,22.8,25C819.1,893,841.5,885.1,848.1,860.2z"/>
	<path fill="#F9F6F8" d="M834.9,845.3c0,5.3-4.4,10.1-9.6,10.1c-5.3,0-9.6-4.4-9.6-9.6c0-5.7,3.9-10.1,9.2-10.1
		C829.7,835.2,834.9,840.4,834.9,845.3z"/>
	<path fill="#F9F6F8" d="M1032.1,802.3c-10.5,24.1-4.4,44.7,14.9,53c18.4,7.9,36.4-1.3,46-24.1c6.1,11.4,9.2,23.2,9.2,35.5
		c0,3.5-3.5,5.7-5.7,7.9c-14.9,13.1-32.9,18.4-52.6,19.3c-11.8,0.4-23.2-1.3-34.6-5.7c-2.6-0.9-4.4-2.2-5.3-5.7
		c-4.4-22.3-1.3-43.8,10.1-63.5C1018.1,812,1023.8,806.3,1032.1,802.3z"/>
	<path fill="#F9F6F8" d="M1069.3,825.1c-4.8,0-8.8-4.4-8.8-9.2c0-5.3,4.4-9.6,9.2-9.6c4.4,0,8.8,4.8,8.8,10.1
		C1078.1,821.2,1074.2,825.1,1069.3,825.1z"/>
</g>
<g>
	<g>
		<path fill="#6D2E9D" d="M1843.6,1266.8c-27.2-50.4-67.5-61.8-96.4-62.2c-0.9,0-1.8,0-2.2,0c-35.9,0-66.6,14.9-87.6,42.1
			c-8.8-9.2-19.3-16.7-31.1-22.3c-19.7-9.6-41.2-14.5-63.5-14.5c-15.3,0-31.1,2.2-49.1,6.6c-2.2-4.8-5.7-9.2-9.6-12.7
			c-7-6.1-16.2-9.2-25.4-9.2c-1.8,0-3.5,0-5.3,0.4c-18.8,2.6-35.5,5.7-52.6,10.1c-13.6,3.5-24.1,13.6-28,26.3
			c-8.3-3.5-17.5-4.4-26.7-2.2c-2.2,0.4-5.3,0.9-8.3,0.9c-9.6,0.9-22.3,2.2-36.4,8.8c-8.3,3.9-14.9,11-18.8,18.8
			c-1.3-3.5-2.6-6.6-3.5-10.1c-5.7-16.7-22.3-27.2-39.9-25.9c-1.3,0-2.6,0-3.9,0.4h-0.9c-3.5,0.4-7.4,0.4-11.4,0.9
			c-3.1,0.4-6.1,0.9-8.3,1.3c-1.8,0.4-3.5,0.4-5.3,0.9c-1.8,0-3.5,0.4-4.8,0.4c-7.9,0.4-22.8,1.3-35.1,14.5
			c-3.5,3.9-6.1,7.9-8.3,11.8c-5.7-13.1-18.8-22.3-33.7-22.8c-2.2,0-4.8,0-7.4,0c-11.8,0-22.3,1.3-32.4,2.2
			c-4.4,0.4-8.3,0.9-12.7,1.3c-11,0.9-21,6.6-27.2,14.9c-7.9-5.3-18-7.4-27.6-5.7c-3.5,0.4-7.9,0.9-12.7,1.3
			c-6.6,0.4-14,0.9-22.3,2.6c-7.9-7.4-18-11-28.9-10.5l-21.9,1.3c-0.4-1.3-1.3-2.2-2.2-3.5c-5.7-9.2-15.3-15.3-25.9-17.1
			c-4.4-0.9-8.3-1.8-13.1-2.6c-12.3-2.6-25-5.3-39.9-5.7c-18-0.9-33.7,10.1-39.4,27.2c-0.9,3.1-1.8,6.1-3.1,9.2
			c-3.5-5.3-7.9-10.1-13.6-13.1c-9.2-5.3-20.2-7-30.2-3.9c-5.7,1.3-11.8,2.6-18.4,3.5c-9.6,1.3-20.6,3.1-32,7
			c-3.1,0.9-6.1,2.2-8.8,3.9c-16.2-9.6-35.1-14.9-54.8-14.9c-30.7,0-59.6,12.7-81.1,35.5c-0.4,0.4-0.4,0.4-0.9,0.9
			c-11.4-14.5-27.2-26.3-46.4-34.2c-19.3-8.3-39.9-12.3-62.7-12.3c-15.8,0-32.4,1.8-53.5,5.7c-1.8,0.4-3.1,0.9-4.8,1.3
			c-1.8-0.4-3.5-0.4-5.7-0.4c-4.4,0-9.2-0.4-13.6-0.4c-7.9-0.4-16.2-0.9-25-0.9c-5.3,0-10.1,0-14.9,0.4c-11,0.9-21,6.1-27.6,14.5
			c-3.9-2.6-7.9-4.8-12.7-6.6c-7.9-3.1-16.7-4.4-26.7-4.4c-5.3,0-10.1,0.4-14,0.9c-3.1,0.4-6.1,0.4-8.3,0.4c-3.1,0-6.6,0.4-9.6,1.3
			c-4.4-2.6-9.6-4.4-14.9-5.3c-15.8-1.8-29.8-2.2-43.8-2.2c-3.1,0-6.6,0-9.6,0h-0.4c-20.6,0-37.7,16.2-39,36.8
			c-3.9,64.9-9.6,124-17.1,180.1c-1.3,10.1,1.3,21,7.9,28.9c6.1,8.3,15.8,13.6,26.3,14.9c18.8,2.6,35.5,2.6,50,2.6h1.3l0.4,0.4
			c7,7.9,16.7,12.7,27.2,13.6l48.6,2.6c10.5,0.4,20.6-3.1,28.5-10.1c2.2-2.2,4.4-4.4,6.1-7c6.6,3.9,14.5,6.1,22.8,6.6
			c2.6,0,5.3,0.4,8.3,0.4c4.8,0.4,11,0.9,17.5,0.9c5.3,0,9.6-0.4,14.5-0.9c8.8-1.3,16.7-5.3,22.8-11.4c11.8,3.9,22.8,4.4,31.1,4.4
			c2.2,0,4.8,0,7,0h0.4c1.8,0,3.1,0,4.8,0h1.3c36.8,0,73.6-14,100.3-37.7c16.7,29.8,43.4,48.2,78,53.5c7,0.9,13.6,1.8,20.6,1.8
			c38.6,0,71.4-18,92.5-50.4c0.4-0.4,0.4-0.9,0.9-1.3c1.8,5.3,3.5,10.5,4.8,15.3c3.5,10.1,11,18.8,20.6,23.2
			c2.2,1.3,9.2,4.8,19.3,4.8h0.9c4.8,0,9.6,0,14.5-0.4c5.7,0,11.4-0.4,17.1-0.4c11.4,0,24.1-0.4,36.8-9.2
			c6.1-4.4,10.1-9.2,13.1-14.9c1.3,7.4,4.8,14.9,10.5,20.6c7.4,7.4,17.5,11.8,28,11.8c0.4,0,1.3,0,1.8,0l45.1-2.2
			c2.2,3.5,4.4,6.6,7.4,9.2c7.4,6.6,16.7,10.5,26.7,10.5c0.9,0,2.2,0,3.1,0l48.2-3.5c12.7-0.9,24.1-8.3,30.7-18.8
			c9.6,5.3,18.4,5.3,21.9,5.3c1.8,0,3.5,0,5.7-0.4c2.6-0.4,5.7-0.4,9.2-0.9c7.9-0.4,18-1.3,28.9-3.5c3.9-0.9,7.4-2.2,10.5-4.4
			l35.9,7c2.6,0.4,5.3,0.9,7.4,0.9c18,0,34.2-12.7,38.1-30.7c0-0.9,0.4-1.3,0.4-2.2c0.9,1.8,1.8,3.5,2.6,5.3
			c7,12.3,20.2,19.7,34.2,19.7c3.9,0,7.4-0.4,11.4-1.8l17.1-5.3c2.6,4.8,5.7,9.6,10.1,13.1c8.3,6.6,18.4,10.1,29.4,8.8l47.8-5.3
			c13.6-1.8,25-10.1,30.7-21.5c6.1,2.6,12.7,3.9,20.2,3.9c7,0,14-1.3,22.8-2.6h0.9c3.5-0.4,7.4-1.3,11.8-1.8
			c5.7-0.9,10.1-2.6,12.7-4.4c8.3,5.7,18.4,8.8,29.8,8.3s21.9-1.8,32.4-3.5c35.5-5.7,67.9-22.3,91.1-47.8
			c20.2,30.7,51.7,47.3,89.8,47.3h1.3c43.8-0.4,79.8-21.5,100.3-59.6c14.5-27.2,18-54.3,18-71.9c0-0.4,0-0.9,0-1.3l0,0
			C1861.2,1313.7,1855.5,1289.2,1843.6,1266.8z"/>
	</g>
	<g>
		<path fill="#491963" d="M1843.6,1237.9c-27.2-50.4-67.5-61.8-96.4-62.2c-0.9,0-1.8,0-2.2,0c-35.9,0-66.6,14.9-87.6,42.1
			c-8.8-9.2-19.3-16.7-31.1-22.3c-19.7-9.6-41.2-14.5-63.5-14.5c-15.3,0-31.1,2.2-49.1,6.6c-2.2-4.8-5.7-9.2-9.6-12.7
			c-7-6.1-16.2-9.2-25.4-9.2c-1.8,0-3.5,0-5.3,0.4c-18.8,2.6-35.5,5.7-52.6,10.1c-13.6,3.5-24.1,13.6-28,26.3
			c-8.3-3.5-17.5-4.4-26.7-2.6c-2.2,0.4-5.3,0.9-8.3,0.9c-9.6,0.9-22.3,2.2-36.4,8.8c-8.3,3.9-14.9,11-18.8,18.8
			c-1.3-3.5-2.6-6.6-3.5-10.1c-5.7-16.7-22.3-27.2-39.9-25.9c-1.3,0-2.6,0-3.9,0.4h-0.9c-3.5,0.4-7.4,0.4-11.4,0.9
			c-3.1,0.4-6.1,0.9-8.3,1.3c-1.8,0.4-3.5,0.4-5.3,0.9c-1.8,0-3.5,0.4-4.8,0.4c-7.9,0.4-22.8,1.3-35.1,14.5
			c-3.5,3.9-6.1,7.9-8.3,11.8c-5.7-13.1-18.8-22.3-33.7-22.8c-2.2,0-4.8,0-7.4,0c-11.8,0-22.3,1.3-32.4,2.2
			c-4.4,0.4-8.3,0.9-12.7,1.3c-11,0.9-21,6.6-27.2,14.9c-7.9-5.3-18-7.4-27.6-5.7c-3.5,0.4-7.9,0.9-12.7,1.3
			c-6.6,0.4-14,0.9-22.3,2.6c-7.9-7.4-18-11-28.9-10.5l-21.9,1.3c-0.4-1.3-1.3-2.2-2.2-3.5c-5.7-9.2-15.3-15.3-25.9-17.1
			c-4.4-0.9-8.3-1.8-13.1-2.6c-12.3-2.6-25-5.3-39.9-5.7c-18-0.9-33.7,10.1-39.4,27.2c-0.9,3.1-1.8,6.1-3.1,9.2
			c-3.5-5.3-7.9-10.1-13.6-13.1c-9.2-5.3-20.2-7-30.2-3.9c-5.7,1.3-11.8,2.6-18.4,3.5c-9.6,1.3-20.6,3.1-32,7
			c-3.1,0.9-6.1,2.2-8.8,3.9c-16.2-9.6-35.1-14.9-54.8-14.9c-30.7,0-59.6,12.7-81.1,35.5c-0.4,0.4-0.4,0.4-0.9,0.9
			c-11.4-14.5-27.2-26.3-46.4-34.2c-19.3-8.3-39.9-12.3-62.7-12.3c-15.8,0-32.4,1.8-53.5,5.7c-1.8,0.4-3.1,0.9-4.8,1.3
			c-1.8-0.4-3.5-0.4-5.7-0.4c-4.4,0-9.2-0.4-13.6-0.4c-7.9-0.4-16.2-0.9-25-0.9c-5.3,0-10.1,0-14.9,0.4c-11,0.9-21,6.1-27.6,14.5
			c-3.9-2.6-7.9-4.8-12.7-6.6c-7.9-3.1-16.7-4.4-26.7-4.4c-5.3,0-10.1,0.4-14,0.9c-3.1,0.4-6.1,0.4-8.3,0.4c-3.1,0-6.6,0.4-9.6,1.3
			c-4.4-2.6-24.1-16.2-56.1-14c-26.7,1.8-55.6,22.8-57,43.4c-3.9,64.9-4.4,124-11.8,180.1c-1.3,10.1,1.3,21,7.9,28.9
			c6.1,8.3,15.8,13.6,26.3,14.9c18.8,2.6,35.5,2.6,50,2.6h1.3l0.4,0.4c7,7.9,16.7,12.7,27.2,13.6l48.6,2.6
			c10.5,0.4,20.6-3.1,28.5-10.1c2.2-2.2,4.4-4.4,6.1-7c6.6,3.9,14.5,6.1,22.8,6.6c2.6,0,5.3,0.4,8.3,0.4c4.8,0.4,11,0.9,17.5,0.9
			c5.3,0,9.6-0.4,14.5-0.9c8.8-1.3,16.7-5.3,22.8-11.4c11.8,3.9,22.8,4.4,31.1,4.4c2.2,0,4.8,0,7,0h0.4c1.8,0,3.1,0,4.8,0h1.3
			c36.8,0,73.6-14,100.3-37.7c16.7,29.8,43.4,48.2,78,53.5c7,0.9,13.6,1.8,20.6,1.8c38.6,0,71.4-18,92.5-50.4
			c0.4-0.4,0.4-0.9,0.9-1.3c1.8,5.3,3.5,10.5,4.8,15.3c3.5,10.1,11,18.8,20.6,23.2c2.2,1.3,9.2,4.8,19.3,4.8h0.9
			c4.8,0,9.6,0,14.5-0.4c5.7,0,11.4-0.4,17.1-0.4c11.4,0,24.1-0.4,36.8-9.2c6.1-4.4,10.1-9.2,13.1-14.9c1.3,7.4,4.8,14.9,10.5,20.6
			c7.4,7.4,17.5,11.8,28,11.8c0.4,0,1.3,0,1.8,0l45.1-2.2c2.2,3.5,4.4,6.6,7.4,9.2c7.4,6.6,16.7,10.5,26.7,10.5c0.9,0,2.2,0,3.1,0
			l48.2-3.5c12.7-0.9,24.1-8.3,30.7-18.8c9.6,5.3,18.4,5.3,21.9,5.3c1.8,0,3.5,0,5.7-0.4c2.6-0.4,5.7-0.4,9.2-0.9
			c7.9-0.4,18-1.3,28.9-3.5c3.9-0.9,7.4-2.2,10.5-4.4l35.9,7c2.6,0.4,5.3,0.9,7.4,0.9c18,0,34.2-12.7,38.1-30.7
			c0-0.9,0.4-1.3,0.4-2.2c0.9,1.8,1.8,3.5,2.6,5.3c7,12.3,20.2,19.7,34.2,19.7c3.9,0,7.4-0.4,11.4-1.8l17.1-5.3
			c2.6,4.8,5.7,9.6,10.1,13.1c8.3,6.6,18.4,10.1,29.4,8.8l47.8-5.3c13.6-1.8,25-10.1,30.7-21.5c6.1,2.6,12.7,3.9,20.2,3.9
			c7,0,14-1.3,22.8-2.6h0.9c3.5-0.4,7.4-1.3,11.8-1.8c5.7-0.9,10.1-2.6,12.7-4.4c8.3,5.7,18.4,8.8,29.8,8.3s21.9-1.8,32.4-3.5
			c35.5-5.7,67.9-22.3,91.1-47.8c20.2,30.7,51.7,47.3,89.8,47.3h1.3c43.8-0.4,79.8-21.5,100.3-59.6c14.5-27.2,18-54.3,18-71.9
			c0-0.4,0-0.9,0-1.3l0,0C1861.2,1284.3,1855.5,1259.8,1843.6,1237.9z"/>
	</g>
	<g>
		<g>
			<path fill="#6D2E9D" d="M1430,1214.2c16.2-3.9,32-7,48.6-9.2c1.3,68.8,3.1,137.2,4.4,205.1c-1.8,0.9-2.2,1.3-2.6,1.3
				c-44.7,6.6-32.4,9.2-54.8-24.1c-12.7-19.3-25-38.6-39.9-57.8c3.1,34.2,6.6,68.8,9.6,103.9c-16.2,1.8-31.5,3.5-47.8,5.3
				c-4.8-65.3-7.4-129.3-9.6-193.7c11.4-5.3,23.7-4.4,35.5-6.6c6.6-1.3,7.9,4.4,10.5,8.3c15.3,25,30.7,50,46,75.4
				c1.3,2.6,5.7,10.5,7.4,11.4C1438.7,1330.8,1432.2,1251.9,1430,1214.2z"/>
		</g>
		<g>
			<path fill="#6D2E9D" d="M1049.6,1342.2c1.8,35.1,3.5,68.8,5.7,103.9c-15.8,1.3-31.1,2.2-48.2,3.5c0-65.3,0-128.8,0-193.7
				c11.8-3.9,25-2.6,39.4-4.8c18,32,36.4,64,56.1,99c-1.3-37.7-2.6-72.3-3.9-107.8c15.8-1.3,31.1-4.4,46.9-3.5
				c0,63.1,0,126.2,0,189.7c-11.4,2.6-22.3,2.6-33.3,3.5c-7,0.9-9.2-4.4-11.8-8.8c-14-23.7-28-47.3-42.1-70.5
				C1056.2,1349.6,1055.3,1345.7,1049.6,1342.2z"/>
		</g>
		<g>
			<path fill="#6D2E9D" d="M273.2,1237c1.8-0.9,2.2-1.3,2.6-1.3c11.8,0,25-3.1,35.9,0.9c11,3.9,11.4,18.8,16.2,29.4
				c9.6,20.6,18.4,41.2,27.6,62.2c1.3,3.1,1.3,6.6,6.1,8.8c2.2-35.1,4.4-69.2,6.6-105.6c16.2-1.3,31.5,0.4,49.1,0.9
				c-7.4,64-14.5,126.6-21.5,190.2c-11.8,1.3-22.8-0.4-33.7-0.9c-7-0.4-8.3-6.1-10.5-10.5c-11.4-24.1-22.3-48.2-33.7-71.9
				c-2.2-4.4-2.6-9.2-7.9-13.1c-1.8,35.5-3.1,70.1-4.8,106.5c-16.2-0.9-31.5-1.8-48.6-2.6C261.8,1364.5,267.5,1300.5,273.2,1237z"/>
		</g>
		<g>
			<path fill="#6D2E9D" d="M589.5,1342.2c0.4-31.5,8.3-60,30.7-83.3c33.7-35.5,89.8-29.8,113.1,13.1c22.8,42.9,20.2,86.8-6.6,127.5
				c-17.1,26.3-43.4,36.4-74.1,31.5c-30.7-4.8-49.1-24.1-58.3-53.5C590.8,1366.3,589.1,1354.4,589.5,1342.2z M635.5,1341.3
				c-0.4,10.1,0.4,20.2,4.8,29.8c4.4,10.5,11,18.4,23.2,19.3c11.8,0.9,20.2-5.3,26.3-14.9c3.9-6.6,7-13.6,8.8-21.5
				c4.8-20.6,5.7-41.2-3.5-60.9c-8.3-18-27.2-21-41.6-7.4c-5.3,5.3-8.8,11.4-11,18.4C638.2,1316.3,635.1,1328.6,635.5,1341.3z"/>
		</g>
		<g>
			<path fill="#6D2E9D" d="M1822.6,1318.1c0,16.2-3.5,35.9-13.6,53.9c-14,26.3-36.8,39-66.2,39c-27.2,0.4-48.6-11.8-61.8-35.9
				c-21.9-40.3-21.9-81.5-0.4-121.4c13.6-25.4,35.9-39.4,66.2-39c29.8,0.4,49.1,16.7,62.7,41.6
				C1818.6,1274.3,1822.2,1293.5,1822.6,1318.1z M1711.3,1311.1c0.9,15.3,2.2,31.5,11.8,45.1c12.7,18.4,35.9,17.1,45.6-3.1
				c13.1-27.6,11.8-55.6-2.2-81.9c-11.4-21.9-34.6-21-46.4,0.4C1713,1283.9,1711.7,1297,1711.3,1311.1z"/>
		</g>
		<g>
			<path fill="#6D2E9D" d="M1501,1232.2c36.4-12.3,72.3-19.3,108.2-1.8c26.3,12.7,38.1,35.5,40.8,64c6.1,65.3-40.8,109.1-95.1,117.4
				c-9.2,1.3-18,2.6-27.2,3.1c-7.4,0-10.1-3.1-11-10.1c-2.6-30.2-5.7-60.5-8.8-90.7C1505.8,1287.4,1503.2,1260.7,1501,1232.2z
				 M1557.5,1365.8c29.8-1.8,53-40.8,47.3-67c-6.6-28.5-28-42.5-56.5-33.7C1551.4,1298.4,1554.4,1331.7,1557.5,1365.8z"/>
		</g>
		<g>
			<path fill="#6D2E9D" d="M436.2,1230.4c32.4-6.1,63.5-8.8,93.8,3.9c28.9,12.3,44.3,34.6,46,66.2c4.4,79.3-57.4,114.8-108.2,114.4
				c-11.4,0-23.2,1.3-35.1-3.5C433.1,1351.4,433.1,1291.8,436.2,1230.4z M476.9,1370.7c30.2-4.8,47.8-21.5,53.5-48.6
				c7-33.3-15.8-57.8-50.8-53C477.8,1302.7,476.5,1336.5,476.9,1370.7z"/>
		</g>
		<g>
			<path fill="#6D2E9D" d="M748.6,1244.5c16.2-5.3,32-5.3,49.1-10.1c10.1,43.4,20.2,85.4,30.2,128c14.5-48.6,28-97.3,43.4-145.5
				c16.7,0.9,32,4.8,48.2,7.9c-4.8,19.3-11.8,37.2-18,55.2c-14,42.9-28.9,85.4-43.4,128.4c-4.8,14.9-4.8,14.9-21,14.9
				c-10.5,0-21,0.4-32,0.9c-0.4,0-0.9-0.4-2.6-1.3C783.6,1365,766.6,1304.9,748.6,1244.5z"/>
		</g>
		<g>
			<path fill="#6D2E9D" d="M1208.7,1431.1c-16.7-3.1-31.5-6.1-47.8-9.6c6.1-20.2,11.8-39.4,17.5-58.7
				c11.4-36.8,22.3-73.6,33.7-110.4c5.7-19.3,4.4-16.2,21-17.5c4.8-0.4,9.6-1.3,14.5-2.2c4.8-0.4,9.6-0.9,14.9-1.3
				c21.5,59.6,44.3,118.3,67.9,177.5c-16.2,4.8-30.7,9.2-46,13.6c-7.4-13.1-8.8-28.5-15.3-42.5c-14,1.8-27.6,3.9-41.2,5.7
				c-7.4,0.9-10.5,4.8-11.8,11.8C1213.9,1409.2,1211.3,1419.3,1208.7,1431.1z M1242.4,1292.2c-0.9,0-1.3,0-2.2,0.4
				c-4.4,18.8-8.8,38.1-14,58.7c11.8-3.1,21.9-2.2,31.5-6.6C1252.9,1326.8,1247.7,1309.3,1242.4,1292.2z"/>
		</g>
		<g>
			<path fill="#6D2E9D" d="M978.2,1244.5c-2.6,63.1-6.6,123.6-3.5,184.9c-16.2,0.9-31.1,1.3-48.6,2.2c4.4-61.8,3.1-122.7,3.1-184.5
				C945.8,1246.7,961.1,1245.8,978.2,1244.5z"/>
		</g>
		<g>
			<path fill="#6D2E9D" d="M188.6,1290.5c17.1,0.4,32.4,0,49.1,1.8c-7.4,61.3-8.3,60.5-11,122.7c-15.8,0-30.7-0.4-47.8-2.6
				C187.7,1351.8,185.1,1352.3,188.6,1290.5z"/>
		</g>
	</g>
	<path fill="#FFFFFF" d="M1837.1,1317.6c-0.4-28.9-4.8-49.5-14.9-68.4c-17.5-32-42.5-48.6-74.9-49.1c-0.4,0-1.3,0-1.8,0l0,0
		c-33.7,0-61.3,16.7-77.1,46.9c-3.5,6.6-6.6,13.1-8.8,20.2c-7.4-22.8-21.9-39-43.4-49.5c-16.7-7.9-33.7-11.8-53-11.8l0,0
		c-19.3,0-39.9,3.9-66.6,13.1c-0.9,0.4-1.8,0.9-2.6,1.3l-0.4-15.3c0-3.9-1.8-7.9-5.3-10.5c-2.6-2.2-6.1-3.5-9.2-3.5
		c-0.4,0-1.3,0-1.8,0c-18,2.6-33.7,5.3-50,9.6c-7,1.8-11.4,7.9-11,14.9c0.9,11,1.8,25,2.6,40.3c0.4,7,0.9,14.9,1.8,22.3
		c-7.9-12.7-15.8-25.9-23.7-38.6c-0.4-0.4-0.4-0.9-0.9-1.3c-2.2-3.9-7.4-14-20.2-14c-1.3,0-3.1,0-4.8,0.4c-3.5,0.9-7,0.9-11,1.3
		c-8.8,0.9-18.4,1.8-28,6.6c-5.3,2.6-8.3,7.9-8.3,13.6c1.3,43.4,3.1,82.8,4.8,120.9c-17.5-45.1-35.9-92-52.6-139.3
		c-2.2-5.7-7.4-9.6-13.6-9.6c-0.4,0-0.9,0-1.3,0c-1.8,0-3.1,0.4-4.8,0.4c-3.5,0.4-7,0.4-10.5,0.9c-2.6,0.4-4.8,0.4-7,0.9
		c-2.6,0.4-4.8,0.9-7,0.9c-2.2,0-3.9,0.4-5.3,0.4c-6.6,0.4-13.1,0.9-18.8,6.6c-4.4,4.4-5.7,9.6-8.3,18.4l-0.4,2.2
		c-6.6,21.5-13.1,43.4-19.7,64.9c-4.8,15.3-9.2,30.2-14,45.6c-1.3,4.8-3.1,9.6-4.4,14.5v-135c0-7.9-6.1-14-14-14.5
		c-2.2,0-3.9,0-6.1,0c-10.1,0-20.2,1.3-29.4,2.2c-4.4,0.4-8.8,0.9-13.6,1.3c-7.9,0.9-13.6,7.4-13.1,14.9l0.9,20.2l0.9,28.5
		l-26.7-47.3c-2.6-4.4-7.4-7.4-12.7-7.4c-0.9,0-1.8,0-2.6,0c-4.8,0.9-10.1,1.3-15.3,1.3c-8.3,0.4-17.1,0.9-25.9,3.9
		c-3.9,1.3-7.4,4.4-8.8,8.3c-0.9-1.8-1.3-3.5-1.3-5.3c0-3.9-1.3-7.9-4.4-11c-2.6-2.6-6.6-3.9-10.1-3.9c-0.4,0-0.4,0-0.9,0l-16.7,0.9
		l-28.5,1.8c0.4-1.8,0.9-3.1,1.3-4.8c0.9-3.9,0.4-7.9-1.8-11.4c-2.2-3.5-5.7-5.7-9.6-6.1c-4.4-0.9-9.2-1.8-13.6-2.6
		c-11.4-2.2-23.2-4.8-35.9-5.3c-0.4,0-0.4,0-0.9,0c-6.1,0-11.8,3.9-13.6,10.1c-9.6,30.2-18.4,60.9-27.2,90.7
		c-0.4,0.9-0.4,1.8-0.9,2.6l-7.4-31.1l-10.5-43.8c-0.9-3.9-3.5-7-6.6-9.2c-2.2-1.3-4.8-2.2-7.4-2.2c-1.3,0-2.6,0-3.9,0.4
		c-7,1.8-14,3.1-21,3.9c-9.2,1.3-18.4,3.1-28.5,6.1c-7.4,2.6-11.8,10.5-9.6,18c0,0.4,0,0.4,0,0.9c-15.3-18-37.7-28-61.8-28l0,0
		c-23.7,0-46.4,10.1-63.1,27.6c-9.2,9.6-16.7,20.6-22.3,32.9c-6.6-28-24.1-48.6-52.1-60.5c-17.1-6.6-34.6-10.1-53.9-10.1l0,0
		c-14,0-29.4,1.8-48.6,5.3c-3.1,0.4-5.7,2.2-7.4,3.9c-2.2-1.8-5.3-3.1-8.3-3.1c-4.8,0-9.2-0.4-14-0.9c-7.9-0.4-15.8-0.9-23.7-0.9
		c-4.8,0-8.8,0-13.1,0.4c-7.4,0.4-13.1,6.1-13.6,13.6l-3.1,50.4c-3.1-7-6.1-13.6-9.2-20.6c-0.9-2.2-1.8-4.8-2.6-7.9
		c-2.6-9.2-7-23.2-21.5-28.5c-5.3-1.8-11-2.6-18.4-2.6c-4.4,0-8.3,0.4-12.3,0.4c-3.5,0.4-7,0.4-10.1,0.4c-3.5,0-6.1,1.3-7.4,1.8
		c-0.4,0-0.4,0.4-0.9,0.4c-3.1,1.3-5.3,3.5-6.6,6.1c-0.9-6.6-8.3-21.5-36.4-24.1c-37.7-3.5-64,30.7-43.4,67.5
		c2.2,3.9-7.9,9.2-8.3,13.6c-1.3,43.4-1.8,84.1-7.4,124c-0.4,3.9,0.4,7.9,3.1,11c2.2,3.1,5.7,5.3,9.6,5.7
		c17.5,2.2,32.9,2.6,46.9,2.6h2.6c7.9,0,14.5-1.8,14.5-1.8c-0.4,3.9,0.9,7.9,3.5,11c2.6,3.1,6.1,4.8,10.1,4.8l34.2,1.8l14.5,0.9
		c0.4,0,0.4,0,0.9,0c3.5,0,7-1.3,9.6-3.9c3.1-2.6,4.4-6.1,4.8-10.1l2.2-50.4c5.3,11.4,11,23.2,16.2,35.1c0.4,0.4,0.4,0.9,0.9,1.3
		c1.8,4.4,7,16.7,22.3,17.1c3.1,0,6.1,0.4,9.2,0.4c4.8,0.4,10.1,0.9,15.8,0.9c3.9,0,7.9-0.4,11.4-0.9c6.6-0.9,11.8-6.1,12.7-12.7
		c0,0,8.3-28.9,8.3-12.7c0,6.1,3.5,11.4,8.8,13.6c10.1,4.4,19.7,4.8,27.6,4.8c2.2,0,4.4,0,6.6,0c1.8,0,3.9,0,5.7,0h0.4h0.9
		c34.6,0,68.8-14.5,91.1-38.1c7-7.4,12.7-15.8,17.5-24.5c0.9,5.3,2.2,10.5,3.5,15.8c11,36.4,35.1,58.3,69.7,63.5
		c5.7,0.9,11.4,1.3,16.7,1.3c30.2,0,55.2-13.6,71.9-39c13.6-21,21.5-42.9,23.7-64.9c8.3,28.5,17.1,57,26.3,85c1.3,3.9,3.9,7,7.4,8.8
		c0.4,0,0.9,0.4,0.9,0.4c1.3,0.9,3.9,2.2,7.9,2.2c0,0,0,0,0.4,0c4.8,0,9.6,0,14.5-0.4c5.7,0,11.4-0.4,17.5-0.4
		c10.1,0,16.7-0.4,22.8-4.8c6.6-4.4,8.8-11,11.8-20.2l0,0c4.8-14.5,9.6-28.9,14.5-43.4c9.2-27.6,19.3-56.5,28.5-84.6
		c0.4,47.8,0.4,96.8-3.1,145.5c-0.4,3.9,1.3,8.3,3.9,11c2.6,2.6,6.6,4.4,10.5,4.4c0.4,0,0.4,0,0.9,0l40.3-1.8l7.9-0.4
		c3.9,0,11-4.4,17.5-9.6v14.9c0,3.9,1.8,7.9,4.8,10.5c2.6,2.6,6.1,3.9,9.6,3.9c0.4,0,0.9,0,0.9,0l48.2-3.5
		c7.9-0.4,13.6-7.4,13.6-15.3l-2.6-49.5c1.8,2.6,3.1,5.3,4.8,7.9c5.3,8.8,10.5,18,16.2,26.7l0.4,0.9c8.8,14.9,18.4,14.9,22.3,14.9
		c0.9,0,1.8,0,3.1,0c3.1-0.4,6.6-0.4,10.1-0.9c7.9-0.4,16.2-0.9,25-3.1c3.9-0.9,7-3.5,9.2-6.6l11.4,2.2l36.4,7
		c0.9,0,1.8,0.4,2.6,0.4c6.6,0,12.7-4.8,14-11.4c0.9-3.5,1.8-7,2.2-10.5c1.8-7.9,3.5-15.3,4.8-22.8l0,0c9.6-1.3,19.3-2.6,28.5-3.9
		c0.4,0,0.4,0,0.9,0c0.9,2.2,1.3,4.8,2.2,7.4c2.6,8.8,4.8,17.5,10.1,26.3c2.6,4.8,7.4,7.4,12.7,7.4c1.3,0,2.6,0,3.9-0.4l43.8-13.1
		c0.4,5.3,0.9,10.5,1.3,15.8c0.4,3.9,2.2,7.4,5.3,10.1c2.6,2.2,5.7,3.5,9.2,3.5c0.4,0,0.9,0,1.8,0l35.1-3.9l13.1-1.3
		c7.9-0.9,13.6-7.9,12.7-15.8l-4.8-49.5c0,0.4,0.4,0.4,0.4,0.9c2.6,3.9,5.3,7.9,7.9,11.8c3.9,5.7,6.6,10.1,8.8,14
		c6.6,11,12.3,20.6,28,20.6c4.8,0,10.5-0.9,18.8-2.2c3.5-0.4,7.9-1.3,12.7-2.2c3.1-0.4,5.3-1.8,6.6-2.6c0.4,0,0.4-0.4,0.9-0.4
		c4.4-2.6,7.4-7.4,7.4-12.7c0,0,3.5-21,5.3-3.1c1.8,21,18,23.2,24.5,23.2c0.4,0,0.4,0,0.9,0c10.1-0.4,19.3-1.8,28.9-3.1
		c41.6-6.6,81.5-32.9,99-74.1c3.1,10.1,7,20.2,12.3,30.2c15.3,28,41.2,43.4,73.6,43.4h0.9c35.1-0.4,62.2-16.7,78.9-46.9
		C1834,1356.2,1836.6,1333.4,1837.1,1317.6C1837.1,1318.1,1837.1,1318.1,1837.1,1317.6z"/>
	<g>
		<g>
			<path fill="#712D9E" d="M1347.6,1446c-1.8,0-3.5-0.4-4.8-1.8c-1.3-1.3-2.6-3.1-2.6-5.3c-4.4-61.8-7-122.3-9.6-193.7
				c0-3.1,1.3-5.7,3.9-6.6c8.8-3.9,17.5-4.8,25.9-5.7c3.9-0.4,7.9-0.9,11.4-1.3c0.9,0,2.2-0.4,3.1-0.4c8.3,0,11.8,6.6,14,10.1
				c0.4,0.4,0.4,1.3,0.9,1.8c10.1,16.2,19.7,32.4,29.8,48.2l9.2,15.3c-0.9-15.3-2.2-35.5-3.5-51.7c-0.9-14.9-2.2-29.4-2.6-39.9
				c-0.4-3.5,2.2-6.6,5.7-7.4c16.2-3.9,32-7,49.5-9.2c0.4,0,0.9,0,0.9,0c1.8,0,3.5,0.4,4.8,1.8c1.8,1.3,2.6,3.5,2.6,5.3l4.4,205.1
				c0,2.6-1.3,5.3-3.5,6.6c-0.4,0.4-0.9,0.4-1.3,0.9c-0.9,0.4-2.2,1.3-3.9,1.8c-4.8,0.9-9.2,1.3-12.7,2.2c-8.3,1.3-13.6,2.2-18,2.2
				c-11.8,0-15.8-6.6-21.9-17.1c-2.2-3.9-5.3-8.3-8.8-14c-2.6-3.9-5.3-7.9-7.9-11.8c-5.3-7.9-11-16.2-16.7-24.5l7.4,78
				c0.4,3.9-2.6,7.4-6.6,7.9l-47.8,5.3C1348,1446,1347.6,1446,1347.6,1446z"/>
			<path fill="#FFFFFF" d="M1478.6,1205c1.3,68.8,3.1,137.2,4.4,205.1c-1.8,0.9-2.2,1.3-2.6,1.3c-15.3,2.2-24.1,3.9-29.8,3.9
				c-10.5,0-10.5-6.6-25-28c-12.7-19.3-25-38.6-39.9-57.8c3.1,34.2,6.6,68.8,9.6,103.9c-16.2,1.8-31.5,3.5-47.8,5.3
				c-4.8-65.3-7.4-129.3-9.6-193.7c11.4-5.3,23.7-4.4,35.5-6.6c0.4,0,1.3,0,1.8,0c4.8,0,6.6,4.8,8.8,8.3c15.3,25,30.7,50,46,75.4
				c1.3,2.6,5.7,10.5,7.4,11.4c1.3-2.2-4.8-81.1-7.4-118.7C1446.2,1209.8,1461.5,1207.2,1478.6,1205 M1478.6,1190.6
				c-0.4,0-1.3,0-1.8,0c-18,2.6-33.7,5.3-50,9.6c-7,1.8-11.4,7.9-11,14.9c0.9,11,1.8,25.4,2.6,40.3c0.4,7,0.9,14.9,1.8,22.3
				c-7.9-12.7-15.8-25.9-23.7-38.6c-0.4-0.4-0.4-0.9-0.9-1.3c-2.2-3.9-7.4-14-20.2-14c-1.3,0-3.1,0-4.8,0.4c-3.5,0.9-7,0.9-11,1.3
				c-8.8,0.9-18.4,1.8-28,6.6c-5.3,2.6-8.3,7.9-8.3,13.6c2.6,71.9,4.8,132.3,9.6,194.1c0.4,3.9,2.2,7.4,5.3,10.1
				c2.6,2.2,5.7,3.5,9.2,3.5c0.4,0,0.9,0,1.8,0l32-3.5l16.2-1.8c7.9-0.9,13.6-7.9,12.7-15.8l-4.8-49.5c0,0.4,0.4,0.4,0.4,0.9
				c2.6,3.9,5.3,7.9,7.9,11.8c3.9,5.7,6.6,10.1,8.8,14c6.6,11,12.3,20.6,28,20.6c4.8,0,10.5-0.9,18.8-2.2c3.5-0.4,7.9-1.3,12.7-2.2
				c3.1-0.4,5.3-1.8,6.6-2.6c0.4,0,0.4-0.4,0.9-0.4c4.4-2.6,7.4-7.4,7.4-12.7v-7.4l-3.9-197.2c0-3.9-1.8-7.9-5.3-10.5
				C1485.2,1191.4,1482.1,1190.6,1478.6,1190.6L1478.6,1190.6z"/>
		</g>
		<g>
			<path fill="#6D2E9D" d="M1007.1,1457c-1.8,0-3.5-0.9-4.8-1.8c-1.3-1.3-2.2-3.5-2.2-5.3v-193.7c0-3.1,2.2-5.7,4.8-7
				c7.9-2.6,16.2-3.1,24.1-3.5c5.3-0.4,10.5-0.4,16.2-1.8c0.4,0,0.9,0,1.3,0c2.6,0,4.8,1.3,6.1,3.5l41.6,73.2l-3.1-78
				c0-3.9,2.6-7,6.6-7.4c4.4-0.4,9.2-0.9,13.6-1.3c9.2-0.9,18.8-2.2,28.5-2.2c1.8,0,3.9,0,5.7,0c3.9,0,7,3.5,7,7.4v189.7
				c0,3.5-2.2,6.1-5.7,7c-8.3,1.8-16.2,2.6-23.7,3.1c-3.5,0.4-7,0.4-10.5,0.9c-0.9,0-1.3,0-2.2,0c-9.6,0-13.6-7-16.2-11.4
				c0,0-11.4-19.3-16.7-28c-6.6-11-13.1-21.9-19.7-32.9l4.4,78.4c0,3.9-2.6,7.4-6.6,7.4l-48.2,3.5
				C1007.6,1457,1007.1,1457,1007.1,1457z"/>
			<path fill="#FFFFFF" d="M1139.9,1238.8c1.8,0,3.5,0,5.3,0c0,63.1,0,126.2,0,189.7c-11.4,2.6-22.3,2.6-33.3,3.5
				c-0.4,0-0.9,0-1.3,0c-5.7,0-7.9-4.8-10.5-8.8c-14-23.7-28-47.3-42.1-70.5c-1.8-3.1-2.6-7-8.3-10.5c1.8,35.1,3.5,68.8,5.7,103.9
				c-15.8,1.3-31.1,2.2-48.2,3.5c0-65.3,0-128.8,0-193.7c11.8-3.9,25-2.6,39.4-4.8c18,32,36.4,64,56.1,99
				c-1.3-37.7-2.6-72.3-3.9-107.8C1112.7,1241,1125.9,1238.8,1139.9,1238.8 M1139.9,1224.3c-10.1,0-20.2,1.3-29.4,2.2
				c-4.4,0.4-8.8,0.9-13.6,1.3c-7.9,0.9-13.6,7.4-13.1,14.9l1.8,48.2l-26.7-47.3c-2.6-4.4-7.4-7.4-12.7-7.4c-0.9,0-1.8,0-2.6,0
				c-4.8,0.9-10.1,1.3-15.3,1.3c-8.3,0.4-17.1,0.9-25.9,3.9c-5.7,2.2-10.1,7.4-10.1,13.6v193.7c0,3.9,1.8,7.9,4.8,10.5
				c2.6,2.6,6.1,3.9,9.6,3.9c0.4,0,0.9,0,0.9,0l44.7-3.5l3.5-0.4c7.9-0.4,13.6-7.4,13.6-15.3l-2.6-49.5c1.8,2.6,3.1,5.3,4.8,7.9
				c5.3,8.8,10.5,18,16.2,26.7l0.4,0.9c2.6,4.4,8.8,14.9,22.3,14.9c0.9,0,1.8,0,3.1,0c3.1-0.4,6.6-0.4,10.1-0.9
				c7.9-0.4,16.2-0.9,25-3.1c6.6-1.3,11.4-7.4,11.4-14V1237c0-7.9-6.1-14-14-14.5C1143.8,1224.3,1142.1,1224.3,1139.9,1224.3
				L1139.9,1224.3z"/>
		</g>
		<path fill="#F6651C" d="M273.2,1237c1.8-0.9,2.2-1.3,2.6-1.3c11.8,0,25-3.1,35.9,0.9c11,3.9,11.4,18.8,16.2,29.4
			c9.6,20.6,18.4,41.2,27.6,62.2c1.3,3.1,1.3,6.6,6.1,8.8c1.8-30.7,3.9-61.3,5.7-92.9c0.4-7.4,7-13.6,14.5-13.6
			c6.6,0,13.6,0.4,20.2,0.9c8.3,0.4,14.5,7.9,13.6,15.8c-6.1,54.8-12.3,108.7-18.4,163c-0.9,7.4-7,12.7-14.5,12.7
			c-7-0.4-14-1.3-21-1.3c-7-0.4-8.3-6.1-10.5-10.5c-11.4-24.1-22.3-48.2-33.7-71.9c-2.2-4.4-2.6-9.2-7.9-13.1
			c-1.3,30.7-2.6,60.9-3.9,92c-0.4,7.9-7,14-14.9,13.6c-6.6-0.4-12.7-0.9-19.3-1.3c-7.9-0.4-14-7.4-13.6-15.3
			C262.6,1354.9,267.9,1295.7,273.2,1237z"/>
		<path fill="#F6651C" d="M589.5,1342.2c0.4-31.5,8.3-60,30.7-83.3c33.7-35.5,89.8-29.8,113.1,13.1c22.8,42.9,20.2,86.8-6.6,127.5
			c-17.1,26.3-43.4,36.4-74.1,31.5c-30.7-4.8-49.1-24.1-58.3-53.5C590.8,1366.3,589.1,1354.4,589.5,1342.2z M635.5,1341.3
			c-0.4,10.1,0.4,20.2,4.8,29.8c4.4,10.5,11,18.4,23.2,19.3c11.8,0.9,20.2-5.3,26.3-14.9c3.9-6.6,7-13.6,8.8-21.5
			c4.8-20.6,5.7-41.2-3.5-60.9c-8.3-18-27.2-21-41.6-7.4c-5.3,5.3-8.8,11.4-11,18.4C638.2,1316.3,635.1,1328.6,635.5,1341.3z"/>
		<g>
			<path fill="#712D9E" d="M1742,1418.4c-29.4,0-53.5-14-67.5-39.4c-22.8-41.6-22.8-86.3-0.9-128.4c14.9-28,39-42.9,70.5-42.9h1.8
				c30.2,0.4,52.6,15.3,68.8,45.6c9.6,17.5,13.6,37.2,14,64.9c-0.4,20.6-5.3,41.2-14.5,57.4C1799.4,1403.1,1774.4,1418,1742,1418.4
				L1742,1418.4z M1718.3,1311.1c0.9,14.5,2.2,28.9,10.5,41.2c4.4,6.1,10.5,9.6,16.7,9.6c7,0,12.7-4.4,16.7-11.8
				c11.8-24.5,11.4-50-1.8-75.8c-3.9-7.9-10.1-12.3-16.2-12.3c-6.6,0-13.1,4.8-17.5,12.7C1720.1,1286.1,1719.2,1298.4,1718.3,1311.1
				z"/>
			<path fill="#FFFFFF" d="M1744.6,1214.7c0.4,0,1.3,0,1.8,0c29.8,0.4,49.1,16.7,62.7,41.6c9.6,18,13.1,37.2,13.1,61.3
				c0,16.2-3.5,35.9-13.6,53.9c-14,26.3-36.8,39-66.2,39c-0.4,0-0.4,0-0.9,0c-26.7,0-48.2-12.3-60.9-35.9
				c-21.9-40.3-21.9-81.5-0.4-121.4C1693.8,1228.7,1715.7,1214.7,1744.6,1214.7 M1745.5,1369.3c9.2,0,18-5.3,22.8-15.8
				c13.1-27.6,11.8-55.6-2.2-81.9c-5.7-10.5-14-15.8-22.8-15.8c-8.8,0-18,5.7-23.7,16.2c-6.6,12.3-7.9,25.4-8.8,39.4
				c0.9,15.3,2.2,31.5,11.8,45.1C1728.8,1365,1737.1,1369.3,1745.5,1369.3 M1744.6,1200.2L1744.6,1200.2
				c-33.7,0-61.3,16.7-77.1,46.9c-23.2,44.7-23.2,91.1,0.9,135.4c15.3,28,41.2,43.4,73.6,43.4h0.9c35.1-0.4,62.2-16.7,78.9-46.9
				c12.3-22.3,14.9-45.6,15.3-60.9v-0.4c-0.4-28.9-4.8-49.5-14.9-68.4c-17.5-32-42.5-48.6-74.9-49.1
				C1745.9,1200.2,1745.5,1200.2,1744.6,1200.2L1744.6,1200.2z M1725.8,1311.1c0.4-11.8,1.8-23.2,7-32.4c3.1-5.7,7-8.8,11-8.8
				c3.5,0,7,3.1,9.6,8.3c12.3,23.2,12.7,46.4,1.8,69.2c-2.2,4.8-6.1,7.9-10.1,7.9c-3.9,0-7.4-2.6-10.5-6.6
				C1727.5,1337.8,1726.6,1324.6,1725.8,1311.1L1725.8,1311.1z"/>
		</g>
		<g>
			<path fill="#712D9E" d="M1527.3,1421.9c-10.5,0-16.2-5.7-17.5-16.7c-1.8-18-3.5-35.5-5.3-53.5c-1.3-12.3-2.6-24.5-3.5-36.8
				c-1.8-18.4-3.5-36.4-4.8-55.2l-2.2-26.7c-0.4-3.5,1.8-6.6,4.8-7.4c25.9-8.8,45.6-12.7,64-12.7c18,0,34.2,3.5,49.5,11
				c26.3,12.7,41.6,35.9,44.7,69.7c7,71-45.6,117-101.2,125.3c-9.2,1.3-18.4,2.6-28,3.1H1527.3z M1564.1,1357.5
				c7.9-2.6,15.8-8.3,22.3-16.7c9.6-12.7,14-28.5,11.4-40.3c-4.4-19.7-16.7-30.7-33.3-30.7c-2.6,0-5.7,0.4-8.8,0.9L1564.1,1357.5z"
				/>
			<path fill="#FFFFFF" d="M1562.7,1220.4c15.3,0,31.1,3.1,46.4,10.5c26.3,12.7,38.1,35.5,40.8,64c6.1,65.3-40.8,109.1-95.1,117.4
				c-9.2,1.3-18,2.6-27.2,3.1h-0.4c-7,0-9.6-3.1-10.1-10.1c-2.6-30.2-5.7-60.5-8.8-90.7c-2.6-26.7-4.8-53.5-7.4-81.9
				C1521.6,1225.2,1542.2,1220.4,1562.7,1220.4 M1557.5,1365.8c29.8-1.8,53-40.8,47.3-67c-5.3-22.8-20.2-36.4-40.3-36.4
				c-5.3,0-10.5,0.9-16.2,2.6C1551.4,1298.4,1554.4,1331.7,1557.5,1365.8 M1562.7,1205.9L1562.7,1205.9c-19.3,0-39.9,3.9-66.6,13.1
				c-6.1,2.2-10.5,8.3-9.6,14.9c0.9,8.8,1.8,17.5,2.2,25.9c1.8,18.8,3.5,37.7,5.3,56.1c1.3,12.3,2.2,24.5,3.5,37.2
				c1.8,17.5,3.5,35.5,5.3,53.5c1.8,21,18,23.2,24.5,23.2c0.4,0,0.4,0,0.9,0c10.1-0.4,19.3-1.8,28.9-3.1
				c58.7-9.2,114.4-57.8,107.4-133.2c-3.5-36.4-19.7-61.8-48.6-75.4C1598.7,1209.4,1581.6,1205.9,1562.7,1205.9L1562.7,1205.9z
				 M1563.6,1276.9c0.4,0,0.4,0,0.9,0c17.1,0,23.7,13.6,26.3,25c2.2,9.6-1.8,23.2-10.1,34.2c-3.1,4.4-6.6,7.4-10.5,10.1l-2.2-22.3
				L1563.6,1276.9L1563.6,1276.9z"/>
		</g>
		<path fill="#F6651C" d="M435.7,1241c0.4-6.1,4.8-11.4,11-12.3c28.9-4.8,56.5-5.7,83.3,5.7c28.9,12.3,44.3,34.6,46,66.2
			c4.4,79.3-57.4,114.8-108.2,114.4c-7.9,0-15.8,0.9-24.1-0.4c-6.1-0.9-11-6.6-11-13.1C433.1,1348.3,433.1,1295.3,435.7,1241z
			 M476.5,1354c0,8.8,9.2,15.3,17.5,12.3c19.7-7.9,31.5-22.3,35.9-44.3c6.1-28.5-10.1-50.8-36.8-53.5c-7.4-0.9-14,4.8-14.5,12.3
			C477.8,1304.9,476.9,1329.5,476.5,1354z"/>
		<g>
			<path fill="#712D9E" d="M805.1,1431.6c-2.2,0-3.5-0.9-4.4-1.3c-0.4,0-0.9-0.4-1.3-0.4c-1.8-0.9-3.1-2.6-3.9-4.4
				c-13.6-41.6-26.3-85.4-38.6-127.5c-4.8-17.1-10.1-34.2-15.3-51.3c-1.3-3.9,0.9-7.9,4.8-8.8c9.2-3.1,18.4-4.4,27.2-5.7
				c7-1.3,14.5-2.2,21.9-4.4c0.4,0,1.3-0.4,1.8-0.4c1.3,0,2.6,0.4,3.5,0.9c1.8,0.9,3.1,2.6,3.5,4.4l24.1,101.2
				c3.1-9.6,5.7-19.3,8.3-28.9c8.8-29.8,17.5-60.5,27.2-90.7c0.9-3.1,3.9-5.3,7-5.3h0.4c12.3,0.4,23.7,3.1,35.1,5.3
				c4.8,0.9,9.2,1.8,14,2.6c1.8,0.4,3.5,1.3,4.8,3.1c0.9,1.8,1.3,3.9,0.9,5.7c-3.5,13.6-7.9,26.7-12.3,39c-2.2,5.7-3.9,11-5.7,16.7
				c-9.6,28.5-19.3,57-28.9,85.4c-4.8,14.5-9.6,28.5-14.5,42.9c-6.1,17.5-8.8,19.7-27.6,20.2c-5.7,0-11.4,0.4-17.5,0.4
				C814.8,1431.6,805.1,1431.6,805.1,1431.6z"/>
			<path fill="#FFFFFF" d="M871.3,1216.9c16.7,0.9,32,4.8,48.2,7.9c-4.8,19.3-11.8,37.2-18,55.2c-14,42.9-28.9,85.4-43.4,128.4
				c-4.8,14.9-4.8,14.9-21,14.9c-10.5,0-21,0.4-32,0.9l0,0c-0.4,0-0.9-0.4-2.6-1.3c-18.8-58.3-35.9-118.3-53.9-178.8
				c16.2-5.3,32-5.3,49.1-10.1c10.1,43.4,20.2,85.4,30.2,128C842.4,1314.1,855.9,1265.5,871.3,1216.9 M871.3,1202.4
				c-6.1,0-11.8,3.9-13.6,10.1c-9.6,30.2-18.4,60.9-27.2,90.7c-0.4,0.9-0.4,1.8-0.9,2.6l-5.7-25l-11.8-50c-0.9-3.9-3.5-7-6.6-9.2
				c-2.2-1.3-4.8-2.2-7.4-2.2c-1.3,0-2.6,0-3.9,0.4c-7,1.8-14,3.1-21,3.9c-9.2,1.3-18.4,3.1-28.5,6.1c-7.4,2.6-11.8,10.5-9.6,18
				c5.3,17.1,10.1,34.2,15.3,51.3c12.3,42.1,25.4,85.4,39,127.5c1.3,3.9,3.9,7,7.4,8.8c0.4,0,0.9,0.4,0.9,0.4
				c1.3,0.9,3.9,2.2,7.9,2.2c0,0,0,0,0.4,0c4.8,0,9.6,0,14.5-0.4c5.7,0,11.4-0.4,17.5-0.4c21.9-0.4,27.6-4.4,34.2-25
				c4.8-14.5,9.6-28.9,14.9-43.4c9.6-28,19.3-57,28.5-85.4c1.8-5.3,3.9-11,5.7-16.7c4.4-12.7,9.2-25.9,12.7-39.9
				c0.9-3.9,0.4-7.9-1.8-11.4c-2.2-3.5-5.7-5.7-9.6-6.1c-4.4-0.9-9.2-1.8-13.6-2.6c-11.4-2.2-23.2-4.8-35.9-5.3
				C871.7,1202.4,871.3,1202.4,871.3,1202.4L871.3,1202.4z"/>
		</g>
		<g>
			<path fill="#712D9E" d="M1208.7,1438.6c-0.4,0-0.9,0-1.3,0l-47.8-9.6c-2.2-0.4-3.9-1.8-4.8-3.5c-0.9-1.8-1.3-3.9-0.9-5.7
				l5.7-18.8c3.9-13.6,7.9-26.3,11.8-39.4c4.4-14.9,9.2-29.8,13.6-44.3c6.6-21.9,13.6-43.8,20.2-66.2l0.4-2.2
				c4.8-15.3,6.1-19.3,21-20.2c1.8,0,3.5,0,5.7-0.4c2.6-0.4,4.8-0.4,7.4-0.9c2.2-0.4,4.4-0.9,7-0.9c3.5-0.4,6.6-0.4,10.1-0.9
				l4.8-0.4h0.4c3.1,0,5.7,1.8,7,4.8c21.9,60.9,45.6,120.9,67.9,177.5c0.9,1.8,0.9,3.9,0,5.7c-0.9,1.8-2.6,3.1-4.4,3.9l-46,13.6
				c-0.9,0-1.3,0.4-2.2,0.4c-2.6,0-4.8-1.3-6.1-3.5c-4.4-7.9-7-16.7-9.2-24.5c-1.3-4.8-2.6-9.2-4.4-13.1c-2.2,0.4-4.4,0.4-6.6,0.9
				c-9.6,1.3-19.7,2.6-29.4,3.9c-3.5,0.4-4.8,0.9-5.7,6.1c-1.3,7.4-3.1,14.5-4.8,22.3c-0.9,3.5-1.8,7-2.2,10.5
				C1214.8,1435.9,1211.8,1438.6,1208.7,1438.6z M1235.9,1341.7c0.9,0,2.2-0.4,3.1-0.4c3.5-0.4,7-0.9,10.1-1.8l-7-23.7
				L1235.9,1341.7z"/>
			<path fill="#FFFFFF" d="M1262.1,1232.2c21.5,59.6,44.3,118.3,67.9,177.5c-16.2,4.8-30.7,9.2-46,13.6
				c-7.4-13.1-8.8-28.5-15.3-42.5c-14,1.8-27.6,3.9-41.2,5.7c-7.4,0.9-10.5,4.8-11.8,11.8c-1.8,10.5-4.4,20.6-7,32.4
				c-16.7-3.1-31.5-6.1-47.8-9.6c6.1-20.2,11.8-39.4,17.5-58.7c11.4-36.8,22.3-73.6,33.7-110.4c5.7-19.3,4.4-16.2,21-17.5
				c4.8-0.4,9.6-1.3,14.5-2.2C1251.6,1232.6,1256.5,1232.6,1262.1,1232.2 M1226.2,1350.9c11.8-3.1,21.9-2.2,31.5-6.6
				c-5.3-17.5-10.5-35.1-15.8-52.1c-0.9,0-1.3,0-2.2,0.4C1235.9,1311.5,1231,1330.3,1226.2,1350.9 M1262.1,1217.7
				c-0.4,0-0.9,0-1.3,0c-1.8,0-3.1,0.4-4.8,0.4c-3.5,0.4-7,0.4-10.5,0.9c-2.6,0.4-4.8,0.4-7,0.9c-2.6,0.4-4.8,0.9-7,0.9
				s-3.9,0.4-5.3,0.4c-6.6,0.4-13.1,0.9-18.8,6.6c-4.4,4.4-5.7,9.6-8.3,18.4l-0.4,2.2c-6.6,21.5-13.1,43.4-19.7,64.9
				c-4.8,15.3-9.2,30.2-14,45.6c-3.9,13.1-7.9,26.3-11.8,39.9l-5.7,18.8c-1.3,3.9-0.4,8.3,1.3,11.8c2.2,3.5,5.7,6.1,9.6,6.6l6.1,1.3
				l41.6,8.3c0.9,0,1.8,0.4,2.6,0.4c6.6,0,12.7-4.8,14-11.4c0.9-3.5,1.8-7,2.2-10.5c1.8-7.9,3.5-15.3,4.8-22.8l0,0
				c9.6-1.3,19.3-2.6,28.5-3.9c0.4,0,0.4,0,0.9,0c0.9,2.2,1.3,4.8,2.2,7.4c2.6,8.8,4.8,17.5,10.1,26.3c2.6,4.8,7.4,7.4,12.7,7.4
				c1.3,0,2.6,0,3.9-0.4l46-13.6c3.9-1.3,7-3.9,8.8-7.4c1.8-3.5,1.8-7.9,0.4-11.8c-22.3-56.1-46-116.1-67.9-177
				C1273.5,1221.2,1267.8,1217.7,1262.1,1217.7L1262.1,1217.7z"/>
		</g>
		<g>
			<path fill="#712D9E" d="M926.1,1439c-1.8,0-3.9-0.9-5.3-2.2s-2.2-3.5-2.2-5.7c3.5-50,3.5-100.3,3.1-149c0-11.8,0-23.2,0-35.1
				c0-3.9,3.1-7,7-7.4l49.5-3.1c1.8,0,3.5,0.9,5.3,2.2c1.3,1.3,2.2,3.5,2.2,5.3c-0.4,12.3-0.9,25-1.8,37.2
				c-2.2,50.4-4.4,98.2-2.2,147.2c0,3.9-3.1,7.4-7,7.4C974.7,1436.8,926.1,1439,926.1,1439z"/>
			<path fill="#FFFFFF" d="M978.2,1244.5c-2.6,63.1-6.6,123.6-3.5,184.9c-16.2,0.9-31.1,1.3-48.6,2.2c4.4-61.8,3.1-122.7,3.1-184.5
				C945.8,1246.7,961.1,1245.8,978.2,1244.5 M978.2,1230c-0.4,0-0.4,0-0.9,0l-8.3,0.4l-40.3,2.2c-7.4,0.4-13.6,7-13.6,14.5
				c0,11.8,0,23.2,0,35.1c0.4,48.6,0.4,98.6-3.1,148.1c-0.4,3.9,1.3,8.3,3.9,11c2.6,2.6,6.6,4.4,10.5,4.4c0.4,0,0.4,0,0.9,0
				l24.5-1.3l24.1-1.3c7.9-0.4,14-7,13.6-14.9c-2.2-49.1,0-96.4,2.2-146.8c0.4-12.3,0.9-24.5,1.8-37.2c0-3.9-1.3-7.9-4.4-11
				C985.7,1231.8,981.7,1230,978.2,1230L978.2,1230z"/>
		</g>
		<path fill="#F6651C" d="M200,1290.5c8.8,0,17.1,0,25.9,0.9c6.6,0.4,11.8,6.6,11,13.1c-6.6,53.5-5.7,45.1-8.8,99.5
			c-0.4,6.1-5.7,11.4-11.8,11.4c-7.9,0-15.8-0.4-24.1-1.3c-6.6-0.4-11.4-6.6-10.5-13.1c7-53.5,3.5-45.6,7-99
			C188.6,1295.3,193.4,1290.5,200,1290.5z"/>
	</g>
</g>
<ellipse transform="matrix(0.9985 -5.530036e-02 5.530036e-02 0.9985 -68.6807 13.9138)" fill="#F6651C" cx="217.1" cy="1248" rx="25" ry="25"/>
</svg>
